<svg width="20" height="20" viewBox="0 0 20 20" fill="none" xmlns="http://www.w3.org/2000/svg">
<g clip-path="url(#clip0)">
<path d="M11.8323 10.0161L19.6199 2.22822C20.1268 1.72165 20.1268 0.902605 19.6199 0.396038C19.1134 -0.110528 18.2943 -0.110528 17.7878 0.396038L9.99991 8.18388L2.21229 0.396038C1.70548 -0.110528 0.886671 -0.110528 0.380104 0.396038C-0.126701 0.902605 -0.126701 1.72165 0.380104 2.22822L8.16772 10.0161L0.380104 17.8039C-0.126701 18.3105 -0.126701 19.1295 0.380104 19.6361C0.632557 19.8888 0.964495 20.0157 1.2962 20.0157C1.6279 20.0157 1.9596 19.8888 2.21229 19.6361L9.99991 11.8482L17.7878 19.6361C18.0405 19.8888 18.3722 20.0157 18.7039 20.0157C19.0356 20.0157 19.3673 19.8888 19.6199 19.6361C20.1268 19.1295 20.1268 18.3105 19.6199 17.8039L11.8323 10.0161Z" fill="#FF294A"/>
</g>
<defs>
<clipPath id="clip0">
<rect width="20" height="20" fill="white"/>
</clipPath>
</defs>
</svg>
