<?xml version="1.0" encoding="utf-8"?><svg xmlns="http://www.w3.org/2000/svg" xmlns:xlink="http://www.w3.org/1999/xlink"><symbol viewBox="0 0 24 24" id="arrow-left" xmlns="http://www.w3.org/2000/svg"><g clip-path="url(#aclip0)"><path d="M.275 11.336l4.9-4.876a.938.938 0 011.322 1.33l-3.289 3.272h19.854a.937.937 0 110 1.876H3.209l3.29 3.272a.937.937 0 11-1.324 1.33L.276 12.665l-.001-.001a.938.938 0 010-1.328z"/></g><defs><clipPath id="aclip0"><path transform="matrix(-1 0 0 1 24 0)" d="M0 0h24v24H0z"/></clipPath></defs></symbol><symbol viewBox="0 0 24 24" id="arrow-right" xmlns="http://www.w3.org/2000/svg"><g clip-path="url(#bclip0)"><path d="M23.725 11.336l-4.9-4.876a.938.938 0 00-1.322 1.33l3.289 3.272H.937a.937.937 0 100 1.876h19.855l-3.29 3.272a.937.937 0 101.324 1.33l4.898-4.875.001-.001a.938.938 0 000-1.328z"/></g><defs><clipPath id="bclip0"><path d="M0 0h24v24H0z"/></clipPath></defs></symbol><symbol viewBox="0 0 22 24" id="basket" xmlns="http://www.w3.org/2000/svg"><g clip-path="url(#cclip0)"><path d="M10.363 18.443a2.046 2.046 0 00-2.045 2.042 2.046 2.046 0 004.09 0 2.046 2.046 0 00-2.045-2.042zm6.134 0a2.046 2.046 0 00-2.045 2.042 2.046 2.046 0 004.089 0 2.046 2.046 0 00-2.044-2.042zm3.978-8.199L7.413 6.891a.614.614 0 00-.75.73L8.67 16.4h-.786L5.482 5.895a.613.613 0 00-.474-.464l-4.27-.882A.614.614 0 00.489 5.75l3.885.802L6.797 17.15a.613.613 0 00.598.477h12.07a.615.615 0 00.607-.53l.858-6.175a.613.613 0 00-.455-.678zm-8.14 3.91a.613.613 0 01-1.227 0v-2.696a.613.613 0 011.227 0v2.696zm2.625 0a.613.613 0 01-1.227 0v-1.88a.613.613 0 011.227 0v1.88zm2.625 0a.613.613 0 01-1.227 0v-1.226a.613.613 0 011.227 0v1.226z"/></g><path fill-rule="evenodd" clip-rule="evenodd" d="M16.268 4.568a2.996 2.996 0 00-1.693-.523c-.627 0-1.21.193-1.693.523-.28-.843-.492-1.752-.492-2.383C12.39.98 13.37 0 14.575 0s2.185.98 2.185 2.185c0 .631-.212 1.54-.492 2.383zm-4.722 2.274l.024.006v-.011l-.024.005zm4.972 1.217c-1.333-.33-2.766-.681-4.129-1.013a2.185 2.185 0 114.129 1.013zm4.436 1.103c-.866-.217-2.155-.538-3.618-.9a2.995 2.995 0 00.243-1.425c.87.18 1.762.45 2.308.765.596.344.969.928 1.067 1.56zM9.869 6.439c-.36-.086-.706-.167-1.03-.243a2.19 2.19 0 01-.376-2.667 2.188 2.188 0 013.147-.7c.098.738.338 1.599.61 2.353a3.01 3.01 0 00-.449.774c-.628.113-1.305.278-1.902.483zm10.124.075a3.43 3.43 0 01-.217.114c-.696-.295-1.587-.526-2.397-.672a3.01 3.01 0 00-.449-.774c.262-.727.494-1.553.599-2.273.095-.067.189-.128.278-.18a2.188 2.188 0 012.986.8 2.188 2.188 0 01-.8 2.985z"/><defs><clipPath id="cclip0"><path transform="translate(0 3.064)" d="M0 0h20.936v20.936H0z"/></clipPath></defs></symbol><symbol viewBox="0 0 16 16" id="call" xmlns="http://www.w3.org/2000/svg"><g clip-path="url(#dclip0)"><path d="M14.716 10.502c-.98 0-1.941-.153-2.853-.454-.446-.153-.995-.013-1.268.267l-1.799 1.358C6.71 10.56 5.424 9.275 4.326 7.204l1.318-1.752c.343-.342.465-.842.318-1.31a9.098 9.098 0 01-.456-2.858C5.506.576 4.93 0 4.222 0H1.284C.576 0 0 .576 0 1.284 0 9.398 6.602 16 14.716 16c.708 0 1.284-.576 1.284-1.284v-2.93c0-.708-.576-1.284-1.284-1.284z"/></g><defs><clipPath id="dclip0"><path d="M0 0h16v16H0z"/></clipPath></defs></symbol><symbol viewBox="0 0 344.96 344.96" id="check" xmlns="http://www.w3.org/2000/svg"><g data-name="Слой 2"><path d="M321.85 86.24l-40-23.11-23.1-40H212.5L172.48 0l-40 23.11H86.24l-23.11 40-40 23.1v46.21L0 172.48l23.11 40v46.21l40 23.11 23.11 40h46.21l40 23.1 40-23.11h46.21l23.11-40 40-23.11V212.5l23.11-40-23.11-40V86.24zM156.91 243.07a16.79 16.79 0 01-23.34 0l-50.45-50.44a16.19 16.19 0 010-22.89l13.35-13.35a16.19 16.19 0 0122.89 0l25.87 25.87 80.34-80.35a16.19 16.19 0 0122.89 0l13.35 13.35a16.19 16.19 0 010 22.89z" data-name="Capa 1"/></g></symbol><symbol viewBox="0 0 24 24" id="fb" xmlns="http://www.w3.org/2000/svg"><path d="M13.397 20.997v-8.196h2.765l.411-3.209h-3.176V7.548c0-.926.258-1.56 1.587-1.56h1.684v-2.86A22.108 22.108 0 0014.201 3c-2.444 0-4.122 1.492-4.122 4.231v2.355H7.332v3.21h2.753v8.201h3.312z"/></symbol><symbol viewBox="0 0 30 18" id="gumburger" xmlns="http://www.w3.org/2000/svg"><path d="M0 1h30M0 9h24M0 17h16"/></symbol><symbol viewBox="0 0 24 24" id="instagram" xmlns="http://www.w3.org/2000/svg"><path d="M17.377 0H6.623A6.63 6.63 0 000 6.623v10.754A6.63 6.63 0 006.623 24h10.754A6.63 6.63 0 0024 17.377V6.623A6.63 6.63 0 0017.377 0zm4.494 17.377a4.499 4.499 0 01-4.494 4.494H6.623a4.499 4.499 0 01-4.494-4.494V6.623A4.499 4.499 0 016.623 2.13h10.754a4.499 4.499 0 014.494 4.494v10.754z"/><path d="M12 5.815A6.191 6.191 0 005.817 12a6.191 6.191 0 006.185 6.183A6.191 6.191 0 0018.185 12 6.191 6.191 0 0012 5.815zm0 10.239a4.06 4.06 0 01-4.054-4.055A4.06 4.06 0 0112 7.945a4.06 4.06 0 014.054 4.054A4.06 4.06 0 0112 16.054zM18.444 4.01c-.41 0-.813.167-1.103.458a1.57 1.57 0 00-.458 1.104c0 .41.167.814.458 1.105.29.29.693.457 1.103.457a1.58 1.58 0 001.105-.457 1.567 1.567 0 000-2.209 1.568 1.568 0 00-1.105-.457z"/></symbol><symbol viewBox="0 0 30 30" id="mouse" xmlns="http://www.w3.org/2000/svg"><g clip-path="url(#iclip0)"><path d="M14.977 0C10.11 0 6.152 3.959 6.152 8.824v12.352c0 4.866 3.959 8.824 8.825 8.824s8.824-3.959 8.824-8.824V8.824C23.801 3.96 19.843 0 14.977 0zM22 21.176a7.032 7.032 0 01-7.024 7.024 7.033 7.033 0 01-7.025-7.024V8.824A7.032 7.032 0 0114.977 1.8 7.032 7.032 0 0122 8.824v12.352z"/><path d="M14.978 5.968a.9.9 0 00-.9.9v4.142a.9.9 0 001.8 0V6.868a.9.9 0 00-.9-.9z"/></g><defs><clipPath id="iclip0"><path d="M0 0h30v30H0z"/></clipPath></defs></symbol><symbol viewBox="0 0 24 24" id="telegram" xmlns="http://www.w3.org/2000/svg"><g clip-path="url(#jclip0)"><path d="M9.417 15.18l-.397 5.584c.568 0 .814-.244 1.11-.537l2.662-2.545 5.518 4.041c1.012.564 1.725.267 1.998-.93L23.93 3.82h.001c.321-1.497-.54-2.082-1.527-1.715l-21.29 8.151c-1.453.564-1.43 1.374-.247 1.741L6.31 13.69l12.643-7.91c.595-.395 1.136-.177.691.217L9.417 15.18z"/></g><defs><clipPath id="jclip0"><path d="M0 0h24v24H0z"/></clipPath></defs></symbol><symbol viewBox="0 0 24 24" id="twitter" xmlns="http://www.w3.org/2000/svg"><g clip-path="url(#kclip0)"><path d="M24 4.559c-.892.391-1.843.65-2.835.776a4.893 4.893 0 002.165-2.719 9.833 9.833 0 01-3.12 1.191 4.919 4.919 0 00-8.511 3.365c0 .39.033.764.114 1.121-4.091-.199-7.71-2.16-10.142-5.146a4.954 4.954 0 00-.673 2.487c0 1.704.877 3.214 2.185 4.089A4.859 4.859 0 01.96 9.117v.054a4.943 4.943 0 003.942 4.835 4.93 4.93 0 01-1.29.162 4.35 4.35 0 01-.932-.084c.638 1.948 2.447 3.38 4.598 3.427a9.886 9.886 0 01-6.1 2.099c-.404 0-.791-.018-1.178-.068a13.852 13.852 0 007.548 2.208c9.054 0 14.004-7.5 14.004-14.001 0-.217-.008-.427-.018-.636A9.816 9.816 0 0024 4.559z"/></g><defs><clipPath id="kclip0"><path d="M0 0h24v24H0z"/></clipPath></defs></symbol><symbol viewBox="0 0 16 16" id="viber" xmlns="http://www.w3.org/2000/svg"><path d="M8 1.335c-1.071.013-3.374.19-4.662 1.37-.958.948-1.292 2.35-1.331 4.084-.033 1.728-.072 4.973 3.058 5.856v1.346s-.02.538.337.648c.438.14.688-.275 1.105-.72l.778-.879c2.142.178 3.782-.232 3.97-.293.435-.139 2.883-.451 3.283-3.696.41-3.351-.2-5.463-1.301-6.418h-.007c-.332-.306-1.668-1.279-4.652-1.29 0 0-.222-.014-.578-.008zm.037.942a7.02 7.02 0 01.488.011c2.527.007 3.732.767 4.017 1.023.927.794 1.405 2.697 1.055 5.495-.332 2.713-2.317 2.885-2.685 3.002-.156.05-1.6.406-3.42.289 0 0-1.356 1.634-1.78 2.055-.067.074-.146.095-.196.085-.071-.018-.093-.107-.089-.229l.013-2.233c-2.655-.733-2.498-3.5-2.47-4.946.033-1.446.304-2.628 1.113-3.43 1.088-.982 3.043-1.115 3.953-1.122zm.2 1.446a.166.166 0 100 .332 3.136 3.136 0 012.242.883c.606.588.9 1.378.912 2.411 0 .092.074.167.167.167V7.51a.167.167 0 00.168-.165 3.588 3.588 0 00-1.009-2.646c-.66-.645-1.496-.977-2.48-.977zm-2.198.382a.523.523 0 00-.342.067H5.69a2.61 2.61 0 00-.637.523 1.003 1.003 0 00-.256.525.71.71 0 00.026.302l.01.006c.172.504.396.988.67 1.444a8.48 8.48 0 001.29 1.762l.015.022.024.017.015.018.017.015c.532.505 1.127.94 1.769 1.295.734.4 1.18.588 1.447.667v.004c.078.024.15.034.221.034.228-.016.444-.109.613-.262a2.53 2.53 0 00.517-.638v-.004c.128-.241.085-.469-.1-.623-.37-.323-.77-.61-1.195-.857-.285-.155-.574-.061-.69.095l-.25.315c-.129.156-.361.134-.361.134l-.007.004C7.093 8.527 6.63 6.772 6.63 6.772s-.022-.239.139-.36l.312-.252c.15-.122.254-.41.094-.695a7.498 7.498 0 00-.856-1.194.475.475 0 00-.28-.167zm2.486.495c-.221 0-.221.334.003.334A2.098 2.098 0 0110 5.572 1.94 1.94 0 0110.5 7a.168.168 0 00.167.165l.007.009a.169.169 0 00.167-.167c.015-.662-.191-1.218-.595-1.663C9.84 4.9 9.273 4.65 8.549 4.6h-.024zm.274.898c-.228-.006-.236.335-.01.341.55.029.816.306.851.877a.166.166 0 00.165.163h.007a.168.168 0 00.16-.178c-.039-.744-.445-1.164-1.166-1.202H8.8z"/></symbol><symbol viewBox="0 0 24 24" id="vk" xmlns="http://www.w3.org/2000/svg"><g clip-path="url(#mclip0)"><path d="M23.786 17.367c-.064-.108-.463-.975-2.384-2.757-2.01-1.866-1.74-1.563.681-4.79 1.475-1.965 2.065-3.165 1.88-3.678-.175-.489-1.26-.36-1.26-.36l-3.606.021s-.267-.036-.467.083c-.193.117-.318.387-.318.387s-.571 1.52-1.333 2.814c-1.607 2.728-2.25 2.873-2.513 2.703-.61-.395-.458-1.587-.458-2.433 0-2.645.4-3.748-.781-4.033-.393-.094-.681-.157-1.685-.168-1.287-.013-2.377.005-2.994.306-.411.201-.728.65-.534.676.238.031.778.145 1.065.535.37.503.357 1.634.357 1.634s.213 3.112-.497 3.5c-.487.265-1.155-.277-2.587-2.753-.734-1.268-1.289-2.67-1.289-2.67s-.106-.261-.297-.401a1.485 1.485 0 00-.555-.224l-3.43.021s-.514.015-.703.239c-.168.2-.013.61-.013.61s2.685 6.282 5.724 9.448c2.789 2.903 5.954 2.712 5.954 2.712h1.434s.434-.048.654-.286c.204-.22.197-.63.197-.63s-.029-1.925.865-2.208c.881-.28 2.012 1.86 3.21 2.683.907.623 1.595.486 1.595.486l3.206-.044s1.677-.104.882-1.423z"/></g><defs><clipPath id="mclip0"><path d="M0 0h24v24H0z"/></clipPath></defs></symbol><symbol viewBox="0 0 16 16" id="whatsapp" xmlns="http://www.w3.org/2000/svg"><path fill-rule="evenodd" clip-rule="evenodd" d="M12.269 3.755A5.947 5.947 0 008.035 2 5.994 5.994 0 002.05 7.985a5.98 5.98 0 00.799 2.992L2 14.077l3.173-.832c.877.477 1.86.728 2.86.728h.002a5.993 5.993 0 005.533-8.276 5.953 5.953 0 00-1.3-1.942zm-4.234 9.208h-.002c-.89 0-1.765-.24-2.532-.694l-.181-.108-1.883.494.502-1.835-.118-.188a4.965 4.965 0 01-.76-2.647 4.982 4.982 0 016.88-4.597c.604.25 1.152.618 1.613 1.081a4.946 4.946 0 011.455 3.52 4.982 4.982 0 01-4.974 4.974zm2.729-3.726c-.15-.075-.885-.436-1.022-.486-.137-.05-.236-.075-.336.074-.1.15-.387.486-.474.586-.087.1-.175.112-.324.038-.15-.075-.631-.233-1.203-.742a4.505 4.505 0 01-.832-1.036c-.087-.15-.009-.231.066-.306.068-.066.15-.174.224-.262.075-.087.1-.149.15-.249.05-.1.025-.187-.013-.262-.037-.075-.337-.811-.461-1.11-.121-.29-.244-.252-.336-.256a6.418 6.418 0 00-.286-.005.55.55 0 00-.4.186c-.137.15-.523.512-.523 1.248s.536 1.447.61 1.547c.075.1 1.055 1.61 2.555 2.258.358.154.636.246.853.315.358.114.684.098.942.06.287-.043.885-.362 1.01-.711.124-.35.124-.649.087-.711-.038-.063-.138-.101-.287-.176z"/></symbol></svg>