<svg width="31" height="45" viewBox="0 0 31 45" fill="none" xmlns="http://www.w3.org/2000/svg">
<path d="M24.0114 14.4343C22.9226 13.4445 22.2397 12.7489 21.8585 12.3396L22.4111 9.66482C22.5799 8.8485 21.956 8.07972 21.1201 8.07972H9.87371C9.03655 8.07972 8.41411 8.84938 8.58268 9.66482L9.13534 12.3396C8.75407 12.7489 8.07125 13.4444 6.98237 14.4343C6.65243 14.7343 6.49643 15.1806 6.56779 15.6208C7.76469 23.0019 14.6949 25.9722 14.9893 26.0951C15.314 26.2305 15.6797 26.2306 16.0045 26.0951C16.2989 25.9722 23.229 23.0019 24.426 15.6208C24.4975 15.1806 24.3414 14.7343 24.0114 14.4343ZM15.497 23.413C12.5396 21.853 10.0745 19.1933 9.30471 15.8803C10.9173 14.3761 11.5246 13.6247 11.5943 13.5365C11.8359 13.2308 11.9298 12.834 11.851 12.4524L11.4923 10.7164H19.5015L19.1428 12.4524C19.064 12.8339 19.1579 13.2308 19.3995 13.5365C19.4692 13.6247 20.0765 14.3761 21.6892 15.8803C20.9173 19.2021 18.4441 21.8584 15.497 23.413Z" fill="#00F0FF"/>
<path d="M26.9238 0H1.43554C0.70746 0 0.117188 0.590272 0.117188 1.31836C0.117188 2.07571 0.117188 42.4628 0.117188 43.6805C0.117188 44.6115 1.0592 45.2508 1.92518 44.9046L5.83007 43.3426L9.73495 44.9046C10.6001 45.2504 11.5429 44.6125 11.5429 43.6805V39.5497H26.9238C29.1046 39.5497 30.8788 37.7756 30.8788 35.5948C30.8788 34.072 30.8788 5.32924 30.8788 3.95498C30.8788 1.77424 29.1046 0 26.9238 0ZM8.90623 41.7333L6.3197 40.6986C6.00558 40.573 5.65473 40.5729 5.34034 40.6986L2.7539 41.7333V34.2764H8.90623C8.90623 35.5774 8.90623 40.0666 8.90623 41.7333ZM28.2421 35.5948C28.2421 36.3217 27.6507 36.9131 26.9238 36.9131H11.5429V34.2764H26.9238C27.3858 34.2764 27.8407 34.1928 28.2421 34.0505V35.5948ZM28.2421 30.3214C28.2421 31.0484 27.6507 31.6398 26.9238 31.6398C25.8205 31.6398 3.45535 31.6398 2.7539 31.6398V2.63663H26.9238C27.6507 2.63663 28.2421 3.22804 28.2421 3.95498V30.3214Z" fill="#00F0FF"/>
</svg>
