<svg width="41" height="45" viewBox="0 0 41 45" fill="none" xmlns="http://www.w3.org/2000/svg">
<path d="M20.2111 12.3033C16.0752 12.3033 14.1758 14.7546 14.1758 16.4091C14.1758 17.6042 15.1867 18.1557 16.0139 18.1557C17.6682 18.1557 16.9943 15.7964 20.1191 15.7964C21.651 15.7964 22.8764 16.4706 22.8764 17.88C22.8764 19.5346 21.1608 20.4844 20.1498 21.3423C19.2614 22.1084 18.0972 23.3647 18.0972 25.9997C18.0972 27.593 18.526 28.0526 19.7821 28.0526C21.2832 28.0526 21.5896 27.3786 21.5896 26.7964C21.5896 25.203 21.6203 24.2838 23.3052 22.9663C24.1325 22.3228 26.7365 20.2392 26.7365 17.3591C26.7365 14.4789 24.1324 12.3034 20.2111 12.3033Z" fill="#00F0FF"/>
<path d="M19.8127 30.1669C18.5261 30.1669 17.4844 31.2393 17.4844 32.5262C17.4844 33.7824 18.4954 34.8855 19.8127 34.8855C21.13 34.8855 22.1717 33.7825 22.1717 32.5262C22.1717 31.2393 21.0993 30.1669 19.8127 30.1669Z" fill="#00F0FF"/>
<path d="M37.3519 8.59524L24.1236 0.966259C21.8897 -0.322127 19.1141 -0.322127 16.8802 0.966259L3.65191 8.59524C1.41378 9.886 0.0234375 12.293 0.0234375 14.8769V30.123C0.0234375 32.7069 1.41378 35.114 3.65191 36.4047L16.8802 44.0337C19.1137 45.3219 21.8894 45.3223 24.1236 44.0337L37.3519 36.4047C39.59 35.1139 40.9804 32.7069 40.9804 30.1229V14.8769C40.9804 12.293 39.59 9.886 37.3519 8.59524ZM37.4648 30.1229C37.4648 31.454 36.7486 32.6937 35.5957 33.3586L22.3674 40.9876C21.2166 41.6512 19.7871 41.6512 18.6363 40.9876L5.40813 33.3587C4.25519 32.6938 3.53906 31.454 3.53906 30.1229V14.8769C3.53906 13.5459 4.25519 12.3061 5.40813 11.6413L18.6364 4.01228C19.7874 3.34862 21.2167 3.34871 22.3675 4.01228L35.5958 11.6413C36.7486 12.3061 37.4648 13.5459 37.4648 14.8769V30.1229Z" fill="#00F0FF"/>
</svg>
