<svg width="45" height="45" viewBox="0 0 45 45" fill="none" xmlns="http://www.w3.org/2000/svg">
<path d="M40.1786 4.82143H35.3572V1.60717C35.3572 0.719541 34.6376 0 33.75 0C32.8623 0 32.1428 0.719541 32.1428 1.60717V4.82143H12.8571V1.60717C12.8571 0.719541 12.1376 0 11.25 0C10.3625 0 9.64285 0.719541 9.64285 1.60717V4.82143H4.82143C2.15862 4.82143 0 6.98005 0 9.64285V40.1786C0 42.8414 2.15862 45 4.82143 45H40.1786C42.8414 45 45 42.8414 45 40.1786V9.64285C45 6.98005 42.8414 4.82143 40.1786 4.82143ZM41.7857 40.1786C41.7857 41.0662 41.0661 41.7857 40.1785 41.7857H4.82143C3.93379 41.7857 3.21425 41.0662 3.21425 40.1786V19.2857H41.7857V40.1786ZM41.7857 16.0714H3.21425V9.64285C3.21425 8.75522 3.93379 8.03568 4.82143 8.03568H9.64285V11.2499C9.64285 12.1376 10.3624 12.8571 11.25 12.8571C12.1377 12.8571 12.8572 12.1376 12.8572 11.2499V8.03568H32.1429V11.2499C32.1429 12.1376 32.8624 12.8571 33.7501 12.8571C34.6377 12.8571 35.3572 12.1376 35.3572 11.2499V8.03568H40.1787C41.0663 8.03568 41.7858 8.75522 41.7858 9.64285V16.0714H41.7857Z" fill="#00F0FF"/>
</svg>
