<svg width="45" height="45" viewBox="0 0 45 45" fill="none" xmlns="http://www.w3.org/2000/svg">
<path d="M45 43.2422C45 44.2131 44.2131 45 43.2422 45H22.5C21.5291 45 20.7422 44.2131 20.7422 43.2422C20.7422 42.2712 21.5291 41.4844 22.5 41.4844H43.2422C44.2131 41.4844 45 42.2712 45 43.2422ZM43.2422 34.5702H29.4142C28.4432 34.5702 27.6564 35.3574 27.6564 36.328C27.6564 37.2989 28.4432 38.0858 29.4142 38.0858H43.2422C44.2131 38.0858 45 37.2989 45 36.328C45 35.3574 44.2131 34.5702 43.2422 34.5702ZM43.2422 27.6564H36.328C35.3571 27.6564 34.5702 28.4432 34.5702 29.4142C34.5702 30.3851 35.3571 31.172 36.328 31.172H43.2422C44.2131 31.172 45 30.3851 45 29.4142C45 28.4432 44.2131 27.6564 43.2422 27.6564ZM44.485 13.3717L13.3717 44.485C13.0421 44.8149 12.5951 45 12.1289 45H1.75781C0.786895 45 0 44.2131 0 43.2422V32.8711C0 32.4048 0.185051 31.9578 0.514984 31.6283L31.6283 0.514984C32.3146 -0.171661 33.4276 -0.171661 34.1139 0.514984L44.485 10.8861C45.1716 11.5724 45.1716 12.6854 44.485 13.3717ZM40.7562 12.1289L32.8711 4.24381L3.51562 33.5993V41.4844H11.4007L40.7562 12.1289Z" fill="#00F0FF"/>
</svg>
