<svg width="24" height="24" viewBox="0 0 24 24" fill="none" xmlns="http://www.w3.org/2000/svg">
<g clip-path="url(#clip0)">
<path d="M23.7861 17.3674C23.7216 17.2593 23.3225 16.3923 21.4024 14.6102C19.3923 12.744 19.6623 13.047 22.0835 9.8203C23.5581 7.85515 24.1476 6.65506 23.9631 6.14202C23.7876 5.65298 22.703 5.78199 22.703 5.78199L19.0967 5.803C19.0967 5.803 18.8297 5.76699 18.6302 5.8855C18.4367 6.00251 18.3122 6.27253 18.3122 6.27253C18.3122 6.27253 17.7406 7.79364 16.9786 9.08674C15.372 11.8154 14.7284 11.9595 14.4659 11.7899C13.8554 11.3954 14.0084 10.2028 14.0084 9.35676C14.0084 6.71206 14.4089 5.60948 13.2268 5.32446C12.8338 5.22995 12.5458 5.16695 11.5422 5.15645C10.2551 5.14295 9.16451 5.16095 8.54796 5.46247C8.13693 5.66349 7.82041 6.11202 8.01392 6.13752C8.25244 6.16902 8.79248 6.28303 9.079 6.67306C9.44953 7.1756 9.43603 8.30668 9.43603 8.30668C9.43603 8.30668 9.64904 11.4194 8.93949 11.8064C8.45195 12.072 7.7844 11.5304 6.3518 9.05374C5.61825 7.78614 5.06321 6.38354 5.06321 6.38354C5.06321 6.38354 4.9567 6.12252 4.76618 5.98301C4.53517 5.8135 4.21114 5.75949 4.21114 5.75949L0.781892 5.78049C0.781892 5.78049 0.267354 5.7955 0.0783406 6.01901C-0.0896717 6.21853 0.0648396 6.62956 0.0648396 6.62956C0.0648396 6.62956 2.75004 12.9105 5.78926 16.0773C8.57796 18.98 11.7432 18.7895 11.7432 18.7895H13.1773C13.1773 18.7895 13.6108 18.7415 13.8313 18.5029C14.0354 18.2839 14.0279 17.8729 14.0279 17.8729C14.0279 17.8729 13.9994 15.9483 14.8934 15.6647C15.774 15.3857 16.9051 17.5249 18.1037 18.3484C19.0097 18.971 19.6983 18.8345 19.6983 18.8345L22.904 18.7895C22.904 18.7895 24.5811 18.686 23.7861 17.3674Z" fill="white"/>
</g>
<defs>
<clipPath id="clip0">
<rect width="24" height="24" fill="white"/>
</clipPath>
</defs>
</svg>
