<svg width="330" height="140" viewBox="0 0 330 140" fill="none" xmlns="http://www.w3.org/2000/svg">
<path d="M5.22095 10.4389C8.10442 10.4389 10.4419 8.1021 10.4419 5.21947C10.4419 2.33684 8.10442 0 5.22095 0C2.33748 0 0 2.33684 0 5.21947C0 8.1021 2.33748 10.4389 5.22095 10.4389Z" fill="var(--svgColor)"/>
<path d="M39.434 5.21966C39.434 7.90647 37.2549 10.085 34.5659 10.085C31.8783 10.085 29.6992 7.90647 29.6992 5.21966C29.6992 2.53143 31.8783 0.354004 34.5659 0.354004C37.2549 0.354004 39.434 2.53143 39.434 5.21966Z" fill="var(--svgColor)"/>
<path d="M68.426 5.21957C68.426 7.71095 66.4047 9.73176 63.9122 9.73176C61.4198 9.73176 59.3984 7.71095 59.3984 5.21957C59.3984 2.72644 61.4198 0.707031 63.9122 0.707031C66.4047 0.707031 68.426 2.72644 68.426 5.21957Z" fill="var(--svgColor)"/>
<path d="M97.4139 5.21934C97.4139 7.51564 95.5517 9.37771 93.2543 9.37771C90.956 9.37771 89.0938 7.51564 89.0938 5.21934C89.0938 2.92268 90.956 1.05957 93.2543 1.05957C95.5517 1.05957 97.4139 2.92268 97.4139 5.21934Z" fill="var(--svgColor)"/>
<path d="M126.406 5.21967C126.406 7.32087 124.703 9.02491 122.6 9.02491C120.498 9.02491 118.793 7.32087 118.793 5.21967C118.793 3.11705 120.498 1.41406 122.6 1.41406C124.703 1.41406 126.406 3.11705 126.406 5.21967Z" fill="var(--svgColor)"/>
<path d="M155.399 5.21958C155.399 7.12534 153.852 8.67066 151.946 8.67066C150.039 8.67066 148.492 7.12534 148.492 5.21958C148.492 3.31346 150.039 1.76709 151.946 1.76709C153.852 1.76709 155.399 3.31346 155.399 5.21958Z" fill="var(--svgColor)"/>
<path d="M184.39 5.21929C184.39 6.92998 183.002 8.31762 181.291 8.31762C179.578 8.31762 178.191 6.92998 178.191 5.21929C178.191 3.50721 179.578 2.12061 181.291 2.12061C183.002 2.12061 184.39 3.50721 184.39 5.21929Z" fill="var(--svgColor)"/>
<path d="M213.382 5.21969C213.382 6.73494 212.153 7.96384 210.636 7.96384C209.12 7.96384 207.891 6.73494 207.891 5.21969C207.891 3.70304 209.12 2.47412 210.636 2.47412C212.153 2.47412 213.382 3.70304 213.382 5.21969Z" fill="var(--svgColor)"/>
<path d="M242.374 5.21953C242.374 6.53968 241.303 7.61057 239.982 7.61057C238.66 7.61057 237.59 6.53968 237.59 5.21953C237.59 3.89901 238.66 2.82812 239.982 2.82812C241.303 2.82812 242.374 3.89901 242.374 5.21953Z" fill="var(--svgColor)"/>
<path d="M271.362 5.2193C271.362 6.34438 270.449 7.25653 269.323 7.25653C268.198 7.25653 267.285 6.34438 267.285 5.2193C267.285 4.09283 268.198 3.18066 269.323 3.18066C270.449 3.18066 271.362 4.09283 271.362 5.2193Z" fill="var(--svgColor)"/>
<path d="M300.354 5.21962C300.354 6.14926 299.601 6.90372 298.669 6.90372C297.739 6.90372 296.984 6.14926 296.984 5.21962C296.984 4.28858 297.739 3.53516 298.669 3.53516C299.601 3.53516 300.354 4.28858 300.354 5.21962Z" fill="var(--svgColor)"/>
<path d="M329.346 5.21954C329.346 5.95408 328.75 6.54948 328.015 6.54948C327.28 6.54948 326.684 5.95408 326.684 5.21954C326.684 4.48358 327.28 3.88818 328.015 3.88818C328.75 3.88818 329.346 4.48358 329.346 5.21954Z" fill="var(--svgColor)"/>
<path d="M5.22095 28.8823C8.10442 28.8823 10.4419 26.5455 10.4419 23.6628C10.4419 20.7802 8.10442 18.4434 5.22095 18.4434C2.33748 18.4434 0 20.7802 0 23.6628C0 26.5455 2.33748 28.8823 5.22095 28.8823Z" fill="var(--svgColor)"/>
<path d="M39.434 23.663C39.434 26.3509 37.2549 28.5294 34.5659 28.5294C31.8783 28.5294 29.6992 26.3509 29.6992 23.663C29.6992 20.9758 31.8783 18.7974 34.5659 18.7974C37.2549 18.7974 39.434 20.9758 39.434 23.663Z" fill="var(--svgColor)"/>
<path d="M68.426 23.6629C68.426 26.1557 66.4047 28.1751 63.9122 28.1751C61.4198 28.1751 59.3984 26.1557 59.3984 23.6629C59.3984 21.1712 61.4198 19.1504 63.9122 19.1504C66.4047 19.1504 68.426 21.1712 68.426 23.6629Z" fill="var(--svgColor)"/>
<path d="M97.4139 23.6628C97.4139 25.9601 95.5517 27.8222 93.2543 27.8222C90.956 27.8222 89.0938 25.9601 89.0938 23.6628C89.0938 21.3661 90.956 19.5044 93.2543 19.5044C95.5517 19.5044 97.4139 21.3661 97.4139 23.6628Z" fill="var(--svgColor)"/>
<path d="M126.406 23.663C126.406 25.7653 124.703 27.4683 122.6 27.4683C120.498 27.4683 118.793 25.7653 118.793 23.663C118.793 21.5618 120.498 19.8574 122.6 19.8574C124.703 19.8574 126.406 21.5618 126.406 23.663Z" fill="var(--svgColor)"/>
<path d="M155.399 23.6629C155.399 25.5697 153.852 27.115 151.946 27.115C150.039 27.115 148.492 25.5697 148.492 23.6629C148.492 21.7567 150.039 20.2114 151.946 20.2114C153.852 20.2114 155.399 21.7567 155.399 23.6629Z" fill="var(--svgColor)"/>
<path d="M181.291 26.7611C183.002 26.7611 184.39 25.3739 184.39 23.6628C184.39 21.9516 183.002 20.5645 181.291 20.5645C179.579 20.5645 178.191 21.9516 178.191 23.6628C178.191 25.3739 179.579 26.7611 181.291 26.7611Z" fill="var(--svgColor)"/>
<path d="M213.382 23.663C213.382 25.1796 212.153 26.4082 210.636 26.4082C209.12 26.4082 207.891 25.1796 207.891 23.663C207.891 22.1474 209.12 20.9185 210.636 20.9185C212.153 20.9185 213.382 22.1474 213.382 23.663Z" fill="var(--svgColor)"/>
<path d="M242.374 23.6629C242.374 24.9841 241.303 26.0539 239.982 26.0539C238.66 26.0539 237.59 24.9841 237.59 23.6629C237.59 22.3424 238.66 21.2715 239.982 21.2715C241.303 21.2715 242.374 22.3424 242.374 23.6629Z" fill="var(--svgColor)"/>
<path d="M271.362 23.6627C271.362 24.7888 270.449 25.701 269.323 25.701C268.198 25.701 267.285 24.7888 267.285 23.6627C267.285 22.5376 268.198 21.6255 269.323 21.6255C270.449 21.6255 271.362 22.5376 271.362 23.6627Z" fill="var(--svgColor)"/>
<path d="M300.354 23.663C300.354 24.5937 299.601 25.3481 298.669 25.3481C297.739 25.3481 296.984 24.5937 296.984 23.663C296.984 22.733 297.739 21.9785 298.669 21.9785C299.601 21.9785 300.354 22.733 300.354 23.663Z" fill="var(--svgColor)"/>
<path d="M329.346 23.6628C329.346 24.3984 328.75 24.9942 328.015 24.9942C327.28 24.9942 326.684 24.3984 326.684 23.6628C326.684 22.9279 327.28 22.3325 328.015 22.3325C328.75 22.3325 329.346 22.9279 329.346 23.6628Z" fill="var(--svgColor)"/>
<path d="M5.22095 47.3271C8.10442 47.3271 10.4419 44.9903 10.4419 42.1077C10.4419 39.225 8.10442 36.8882 5.22095 36.8882C2.33748 36.8882 0 39.225 0 42.1077C0 44.9903 2.33748 47.3271 5.22095 47.3271Z" fill="var(--svgColor)"/>
<path d="M39.434 42.1075C39.434 44.7943 37.2549 46.9728 34.5659 46.9728C31.8783 46.9728 29.6992 44.7943 29.6992 42.1075C29.6992 39.4207 31.8783 37.2422 34.5659 37.2422C37.2549 37.2422 39.434 39.4207 39.434 42.1075Z" fill="var(--svgColor)"/>
<path d="M63.9122 46.6198C66.4051 46.6198 68.426 44.5995 68.426 42.1073C68.426 39.6151 66.4051 37.5947 63.9122 37.5947C61.4194 37.5947 59.3984 39.6151 59.3984 42.1073C59.3984 44.5995 61.4194 46.6198 63.9122 46.6198Z" fill="var(--svgColor)"/>
<path d="M97.4139 42.1077C97.4139 44.404 95.5517 46.266 93.2543 46.266C90.956 46.266 89.0938 44.404 89.0938 42.1077C89.0938 39.811 90.956 37.9482 93.2543 37.9482C95.5517 37.9482 97.4139 39.811 97.4139 42.1077Z" fill="var(--svgColor)"/>
<path d="M126.406 42.1074C126.406 44.2086 124.703 45.9126 122.6 45.9126C120.498 45.9126 118.793 44.2086 118.793 42.1074C118.793 40.0061 120.498 38.3018 122.6 38.3018C124.703 38.3018 126.406 40.0061 126.406 42.1074Z" fill="var(--svgColor)"/>
<path d="M155.399 42.1073C155.399 44.0134 153.852 45.5587 151.946 45.5587C150.039 45.5587 148.492 44.0134 148.492 42.1073C148.492 40.2011 150.039 38.6548 151.946 38.6548C153.852 38.6548 155.399 40.2011 155.399 42.1073Z" fill="var(--svgColor)"/>
<path d="M181.291 45.2059C183.002 45.2059 184.39 43.8188 184.39 42.1076C184.39 40.3964 183.002 39.0093 181.291 39.0093C179.579 39.0093 178.191 40.3964 178.191 42.1076C178.191 43.8188 179.579 45.2059 181.291 45.2059Z" fill="var(--svgColor)"/>
<path d="M213.382 42.1074C213.382 43.623 212.153 44.8526 210.636 44.8526C209.12 44.8526 207.891 43.623 207.891 42.1074C207.891 40.5907 209.12 39.3618 210.636 39.3618C212.153 39.3618 213.382 40.5907 213.382 42.1074Z" fill="var(--svgColor)"/>
<path d="M239.982 44.4991C241.303 44.4991 242.374 43.4285 242.374 42.1077C242.374 40.787 241.303 39.7163 239.982 39.7163C238.661 39.7163 237.59 40.787 237.59 42.1077C237.59 43.4285 238.661 44.4991 239.982 44.4991Z" fill="var(--svgColor)"/>
<path d="M271.362 42.1076C271.362 43.2327 270.449 44.1459 269.323 44.1459C268.198 44.1459 267.285 43.2327 267.285 42.1076C267.285 40.9825 268.198 40.0693 269.323 40.0693C270.449 40.0693 271.362 40.9825 271.362 42.1076Z" fill="var(--svgColor)"/>
<path d="M300.354 42.1073C300.354 43.037 299.601 43.7914 298.669 43.7914C297.739 43.7914 296.984 43.037 296.984 42.1073C296.984 41.1763 297.739 40.4229 298.669 40.4229C299.601 40.4229 300.354 41.1763 300.354 42.1073Z" fill="var(--svgColor)"/>
<path d="M329.346 42.1072C329.346 42.8418 328.75 43.4386 328.015 43.4386C327.28 43.4386 326.684 42.8418 326.684 42.1072C326.684 41.3727 327.28 40.7759 328.015 40.7759C328.75 40.7759 329.346 41.3727 329.346 42.1072Z" fill="var(--svgColor)"/>
<path d="M10.4419 60.5509C10.4419 63.4342 8.10373 65.7704 5.22095 65.7704C2.33784 65.7704 0 63.4342 0 60.5509C0 57.6687 2.33784 55.3325 5.22095 55.3325C8.10373 55.3325 10.4419 57.6687 10.4419 60.5509Z" fill="var(--svgColor)"/>
<path d="M39.434 60.5509C39.434 63.2387 37.2549 65.4172 34.5659 65.4172C31.8783 65.4172 29.6992 63.2387 29.6992 60.5509C29.6992 57.864 31.8783 55.6855 34.5659 55.6855C37.2549 55.6855 39.434 57.864 39.434 60.5509Z" fill="var(--svgColor)"/>
<path d="M68.426 60.551C68.426 63.0438 66.4047 65.0636 63.9122 65.0636C61.4198 65.0636 59.3984 63.0438 59.3984 60.551C59.3984 58.0593 61.4198 56.0396 63.9122 56.0396C66.4047 56.0396 68.426 58.0593 68.426 60.551Z" fill="var(--svgColor)"/>
<path d="M97.4139 60.5509C97.4139 62.8486 95.5517 64.7104 93.2543 64.7104C90.956 64.7104 89.0938 62.8486 89.0938 60.5509C89.0938 58.2543 90.956 56.3926 93.2543 56.3926C95.5517 56.3926 97.4139 58.2543 97.4139 60.5509Z" fill="var(--svgColor)"/>
<path d="M126.406 60.5513C126.406 62.6535 124.703 64.3579 122.6 64.3579C120.498 64.3579 118.793 62.6535 118.793 60.5513C118.793 58.4501 120.498 56.7471 122.6 56.7471C124.703 56.7471 126.406 58.4501 126.406 60.5513Z" fill="var(--svgColor)"/>
<path d="M155.399 60.5511C155.399 62.4582 153.852 64.0035 151.946 64.0035C150.039 64.0035 148.492 62.4582 148.492 60.5511C148.492 58.6449 150.039 57.0996 151.946 57.0996C153.852 57.0996 155.399 58.6449 155.399 60.5511Z" fill="var(--svgColor)"/>
<path d="M184.39 60.551C184.39 62.2627 183.002 63.6504 181.291 63.6504C179.578 63.6504 178.191 62.2627 178.191 60.551C178.191 58.8403 179.578 57.4526 181.291 57.4526C183.002 57.4526 184.39 58.8403 184.39 60.551Z" fill="var(--svgColor)"/>
<path d="M213.382 60.5508C213.382 62.0675 212.153 63.2964 210.636 63.2964C209.12 63.2964 207.891 62.0675 207.891 60.5508C207.891 59.0352 209.12 57.8066 210.636 57.8066C212.153 57.8066 213.382 59.0352 213.382 60.5508Z" fill="var(--svgColor)"/>
<path d="M239.982 62.9424C241.303 62.9424 242.374 61.8718 242.374 60.5511C242.374 59.2303 241.303 58.1597 239.982 58.1597C238.661 58.1597 237.59 59.2303 237.59 60.5511C237.59 61.8718 238.661 62.9424 239.982 62.9424Z" fill="var(--svgColor)"/>
<path d="M271.362 60.5509C271.362 61.677 270.449 62.5892 269.323 62.5892C268.198 62.5892 267.285 61.677 267.285 60.5509C267.285 59.4258 268.198 58.5137 269.323 58.5137C270.449 58.5137 271.362 59.4258 271.362 60.5509Z" fill="var(--svgColor)"/>
<path d="M300.354 60.5507C300.354 61.4817 299.601 62.2362 298.669 62.2362C297.739 62.2362 296.984 61.4817 296.984 60.5507C296.984 59.6207 297.739 58.8662 298.669 58.8662C299.601 58.8662 300.354 59.6207 300.354 60.5507Z" fill="var(--svgColor)"/>
<path d="M329.346 60.551C329.346 61.2866 328.75 61.8824 328.015 61.8824C327.28 61.8824 326.684 61.2866 326.684 60.551C326.684 59.8165 327.28 59.2207 328.015 59.2207C328.75 59.2207 329.346 59.8165 329.346 60.551Z" fill="var(--svgColor)"/>
<path d="M5.22095 84.2148C8.10442 84.2148 10.4419 81.878 10.4419 78.9953C10.4419 76.1127 8.10442 73.7759 5.22095 73.7759C2.33748 73.7759 0 76.1127 0 78.9953C0 81.878 2.33748 84.2148 5.22095 84.2148Z" fill="var(--svgColor)"/>
<path d="M39.434 78.9957C39.434 81.6828 37.2549 83.8613 34.5659 83.8613C31.8783 83.8613 29.6992 81.6828 29.6992 78.9957C29.6992 76.3088 31.8783 74.1304 34.5659 74.1304C37.2549 74.1304 39.434 76.3088 39.434 78.9957Z" fill="var(--svgColor)"/>
<path d="M68.426 78.9956C68.426 81.4873 66.4047 83.5081 63.9122 83.5081C61.4198 83.5081 59.3984 81.4873 59.3984 78.9956C59.3984 76.5039 61.4198 74.4834 63.9122 74.4834C66.4047 74.4834 68.426 76.5039 68.426 78.9956Z" fill="var(--svgColor)"/>
<path d="M97.4139 78.9953C97.4139 81.2919 95.5517 83.1547 93.2543 83.1547C90.956 83.1547 89.0938 81.2919 89.0938 78.9953C89.0938 76.699 90.956 74.8369 93.2543 74.8369C95.5517 74.8369 97.4139 76.699 97.4139 78.9953Z" fill="var(--svgColor)"/>
<path d="M126.406 78.9957C126.406 81.0969 124.703 82.8013 122.6 82.8013C120.498 82.8013 118.793 81.0969 118.793 78.9957C118.793 76.8945 120.498 75.1904 122.6 75.1904C124.703 75.1904 126.406 76.8945 126.406 78.9957Z" fill="var(--svgColor)"/>
<path d="M155.399 78.9955C155.399 80.9017 153.852 82.447 151.946 82.447C150.039 82.447 148.492 80.9017 148.492 78.9955C148.492 77.0897 150.039 75.5444 151.946 75.5444C153.852 75.5444 155.399 77.0897 155.399 78.9955Z" fill="var(--svgColor)"/>
<path d="M181.291 82.0936C183.002 82.0936 184.39 80.7065 184.39 78.9953C184.39 77.2841 183.002 75.897 181.291 75.897C179.579 75.897 178.191 77.2841 178.191 78.9953C178.191 80.7065 179.579 82.0936 181.291 82.0936Z" fill="var(--svgColor)"/>
<path d="M213.382 78.9956C213.382 80.5112 212.153 81.7412 210.636 81.7412C209.12 81.7412 207.891 80.5112 207.891 78.9956C207.891 77.48 209.12 76.2515 210.636 76.2515C212.153 76.2515 213.382 77.48 213.382 78.9956Z" fill="var(--svgColor)"/>
<path d="M239.982 81.3868C241.303 81.3868 242.374 80.3161 242.374 78.9954C242.374 77.6747 241.303 76.604 239.982 76.604C238.661 76.604 237.59 77.6747 237.59 78.9954C237.59 80.3161 238.661 81.3868 239.982 81.3868Z" fill="var(--svgColor)"/>
<path d="M271.362 78.9953C271.362 80.1204 270.449 81.0336 269.323 81.0336C268.198 81.0336 267.285 80.1204 267.285 78.9953C267.285 77.8702 268.198 76.957 269.323 76.957C270.449 76.957 271.362 77.8702 271.362 78.9953Z" fill="var(--svgColor)"/>
<path d="M300.354 78.9957C300.354 79.9256 299.601 80.6801 298.669 80.6801C297.739 80.6801 296.984 79.9256 296.984 78.9957C296.984 78.066 297.739 77.3115 298.669 77.3115C299.601 77.3115 300.354 78.066 300.354 78.9957Z" fill="var(--svgColor)"/>
<path d="M329.346 78.9954C329.346 79.73 328.75 80.3268 328.015 80.3268C327.28 80.3268 326.684 79.73 326.684 78.9954C326.684 78.2609 327.28 77.6641 328.015 77.6641C328.75 77.6641 329.346 78.2609 329.346 78.9954Z" fill="var(--svgColor)"/>
<path d="M10.4419 97.4402C10.4419 100.322 8.10373 102.659 5.22095 102.659C2.33784 102.659 0 100.322 0 97.4402C0 94.5572 2.33784 92.2207 5.22095 92.2207C8.10373 92.2207 10.4419 94.5572 10.4419 97.4402Z" fill="var(--svgColor)"/>
<path d="M39.434 97.4401C39.434 100.127 37.2549 102.306 34.5659 102.306C31.8783 102.306 29.6992 100.127 29.6992 97.4401C29.6992 94.7522 31.8783 92.5737 34.5659 92.5737C37.2549 92.5737 39.434 94.7522 39.434 97.4401Z" fill="var(--svgColor)"/>
<path d="M68.426 97.4399C68.426 99.9317 66.4047 101.951 63.9122 101.951C61.4198 101.951 59.3984 99.9317 59.3984 97.4399C59.3984 94.9471 61.4198 92.9277 63.9122 92.9277C66.4047 92.9277 68.426 94.9471 68.426 97.4399Z" fill="var(--svgColor)"/>
<path d="M97.4139 97.4402C97.4139 99.7368 95.5517 101.599 93.2543 101.599C90.956 101.599 89.0938 99.7368 89.0938 97.4402C89.0938 95.1428 90.956 93.2808 93.2543 93.2808C95.5517 93.2808 97.4139 95.1428 97.4139 97.4402Z" fill="var(--svgColor)"/>
<path d="M126.406 97.44C126.406 99.5416 124.703 101.246 122.6 101.246C120.498 101.246 118.793 99.5416 118.793 97.44C118.793 95.3378 120.498 93.6348 122.6 93.6348C124.703 93.6348 126.406 95.3378 126.406 97.44Z" fill="var(--svgColor)"/>
<path d="M155.399 97.4399C155.399 99.3461 153.852 100.891 151.946 100.891C150.039 100.891 148.492 99.3461 148.492 97.4399C148.492 95.5331 150.039 93.9878 151.946 93.9878C153.852 93.9878 155.399 95.5331 155.399 97.4399Z" fill="var(--svgColor)"/>
<path d="M184.39 97.4402C184.39 99.1512 183.002 100.539 181.291 100.539C179.578 100.539 178.191 99.1512 178.191 97.4402C178.191 95.7285 179.578 94.3408 181.291 94.3408C183.002 94.3408 184.39 95.7285 184.39 97.4402Z" fill="var(--svgColor)"/>
<path d="M213.382 97.44C213.382 98.9556 212.153 100.185 210.636 100.185C209.12 100.185 207.891 98.9556 207.891 97.44C207.891 95.9237 209.12 94.6948 210.636 94.6948C212.153 94.6948 213.382 95.9237 213.382 97.44Z" fill="var(--svgColor)"/>
<path d="M242.374 97.4399C242.374 98.7604 241.303 99.8312 239.982 99.8312C238.66 99.8312 237.59 98.7604 237.59 97.4399C237.59 96.1187 238.66 95.0488 239.982 95.0488C241.303 95.0488 242.374 96.1187 242.374 97.4399Z" fill="var(--svgColor)"/>
<path d="M271.362 97.4401C271.362 98.5652 270.449 99.4777 269.323 99.4777C268.198 99.4777 267.285 98.5652 267.285 97.4401C267.285 96.314 268.198 95.4019 269.323 95.4019C270.449 95.4019 271.362 96.314 271.362 97.4401Z" fill="var(--svgColor)"/>
<path d="M300.354 97.44C300.354 98.37 299.601 99.1245 298.669 99.1245C297.739 99.1245 296.984 98.37 296.984 97.44C296.984 96.5093 297.739 95.7559 298.669 95.7559C299.601 95.7559 300.354 96.5093 300.354 97.44Z" fill="var(--svgColor)"/>
<path d="M329.346 97.4399C329.346 98.1748 328.75 98.7702 328.015 98.7702C327.28 98.7702 326.684 98.1748 326.684 97.4399C326.684 96.7043 327.28 96.1089 328.015 96.1089C328.75 96.1089 329.346 96.7043 329.346 97.4399Z" fill="var(--svgColor)"/>
<path d="M5.22095 121.103C8.10442 121.103 10.4419 118.767 10.4419 115.884C10.4419 113.001 8.10442 110.665 5.22095 110.665C2.33748 110.665 0 113.001 0 115.884C0 118.767 2.33748 121.103 5.22095 121.103Z" fill="var(--svgColor)"/>
<path d="M39.434 115.884C39.434 118.571 37.2549 120.749 34.5659 120.749C31.8783 120.749 29.6992 118.571 29.6992 115.884C29.6992 113.197 31.8783 111.018 34.5659 111.018C37.2549 111.018 39.434 113.197 39.434 115.884Z" fill="var(--svgColor)"/>
<path d="M68.426 115.884C68.426 118.376 66.4047 120.396 63.9122 120.396C61.4198 120.396 59.3984 118.376 59.3984 115.884C59.3984 113.392 61.4198 111.371 63.9122 111.371C66.4047 111.371 68.426 113.392 68.426 115.884Z" fill="var(--svgColor)"/>
<path d="M97.4139 115.884C97.4139 118.18 95.5517 120.043 93.2543 120.043C90.956 120.043 89.0938 118.18 89.0938 115.884C89.0938 113.587 90.956 111.726 93.2543 111.726C95.5517 111.726 97.4139 113.587 97.4139 115.884Z" fill="var(--svgColor)"/>
<path d="M126.406 115.884C126.406 117.985 124.703 119.689 122.6 119.689C120.498 119.689 118.793 117.985 118.793 115.884C118.793 113.783 120.498 112.078 122.6 112.078C124.703 112.078 126.406 113.783 126.406 115.884Z" fill="var(--svgColor)"/>
<path d="M155.399 115.884C155.399 117.791 153.852 119.336 151.946 119.336C150.039 119.336 148.492 117.791 148.492 115.884C148.492 113.978 150.039 112.433 151.946 112.433C153.852 112.433 155.399 113.978 155.399 115.884Z" fill="var(--svgColor)"/>
<path d="M184.39 115.884C184.39 117.595 183.002 118.982 181.291 118.982C179.578 118.982 178.191 117.595 178.191 115.884C178.191 114.173 179.578 112.785 181.291 112.785C183.002 112.785 184.39 114.173 184.39 115.884Z" fill="var(--svgColor)"/>
<path d="M213.382 115.884C213.382 117.4 212.153 118.629 210.636 118.629C209.12 118.629 207.891 117.4 207.891 115.884C207.891 114.368 209.12 113.139 210.636 113.139C212.153 113.139 213.382 114.368 213.382 115.884Z" fill="var(--svgColor)"/>
<path d="M242.374 115.884C242.374 117.204 241.303 118.275 239.982 118.275C238.66 118.275 237.59 117.204 237.59 115.884C237.59 114.564 238.66 113.493 239.982 113.493C241.303 113.493 242.374 114.564 242.374 115.884Z" fill="var(--svgColor)"/>
<path d="M271.362 115.884C271.362 117.009 270.449 117.922 269.323 117.922C268.198 117.922 267.285 117.009 267.285 115.884C267.285 114.759 268.198 113.845 269.323 113.845C270.449 113.845 271.362 114.759 271.362 115.884Z" fill="var(--svgColor)"/>
<path d="M300.354 115.884C300.354 116.814 299.601 117.568 298.669 117.568C297.739 117.568 296.984 116.814 296.984 115.884C296.984 114.954 297.739 114.199 298.669 114.199C299.601 114.199 300.354 114.954 300.354 115.884Z" fill="var(--svgColor)"/>
<path d="M329.346 115.884C329.346 116.618 328.75 117.215 328.015 117.215C327.28 117.215 326.684 116.618 326.684 115.884C326.684 115.149 327.28 114.552 328.015 114.552C328.75 114.552 329.346 115.149 329.346 115.884Z" fill="var(--svgColor)"/>
<path d="M5.22095 139.548C8.10442 139.548 10.4419 137.211 10.4419 134.328C10.4419 131.446 8.10442 129.109 5.22095 129.109C2.33748 129.109 0 131.446 0 134.328C0 137.211 2.33748 139.548 5.22095 139.548Z" fill="var(--svgColor)"/>
<path d="M39.434 134.328C39.434 137.015 37.2549 139.193 34.5659 139.193C31.8783 139.193 29.6992 137.015 29.6992 134.328C29.6992 131.64 31.8783 129.461 34.5659 129.461C37.2549 129.461 39.434 131.64 39.434 134.328Z" fill="var(--svgColor)"/>
<path d="M63.9122 138.841C66.4051 138.841 68.426 136.821 68.426 134.328C68.426 131.836 66.4051 129.816 63.9122 129.816C61.4194 129.816 59.3984 131.836 59.3984 134.328C59.3984 136.821 61.4194 138.841 63.9122 138.841Z" fill="var(--svgColor)"/>
<path d="M97.4139 134.328C97.4139 136.625 95.5517 138.487 93.2543 138.487C90.956 138.487 89.0938 136.625 89.0938 134.328C89.0938 132.031 90.956 130.169 93.2543 130.169C95.5517 130.169 97.4139 132.031 97.4139 134.328Z" fill="var(--svgColor)"/>
<path d="M126.406 134.329C126.406 136.43 124.703 138.134 122.6 138.134C120.498 138.134 118.793 136.43 118.793 134.329C118.793 132.226 120.498 130.523 122.6 130.523C124.703 130.523 126.406 132.226 126.406 134.329Z" fill="var(--svgColor)"/>
<path d="M155.399 134.328C155.399 136.235 153.852 137.78 151.946 137.78C150.039 137.78 148.492 136.235 148.492 134.328C148.492 132.421 150.039 130.876 151.946 130.876C153.852 130.876 155.399 132.421 155.399 134.328Z" fill="var(--svgColor)"/>
<path d="M181.291 137.427C183.002 137.427 184.39 136.039 184.39 134.328C184.39 132.617 183.002 131.23 181.291 131.23C179.579 131.23 178.191 132.617 178.191 134.328C178.191 136.039 179.579 137.427 181.291 137.427Z" fill="var(--svgColor)"/>
<path d="M213.382 134.329C213.382 135.844 212.153 137.073 210.636 137.073C209.12 137.073 207.891 135.844 207.891 134.329C207.891 132.812 209.12 131.583 210.636 131.583C212.153 131.583 213.382 132.812 213.382 134.329Z" fill="var(--svgColor)"/>
<path d="M239.982 136.72C241.303 136.72 242.374 135.649 242.374 134.328C242.374 133.008 241.303 131.937 239.982 131.937C238.661 131.937 237.59 133.008 237.59 134.328C237.59 135.649 238.661 136.72 239.982 136.72Z" fill="var(--svgColor)"/>
<path d="M271.362 134.328C271.362 135.453 270.449 136.366 269.323 136.366C268.198 136.366 267.285 135.453 267.285 134.328C267.285 133.202 268.198 132.29 269.323 132.29C270.449 132.29 271.362 133.202 271.362 134.328Z" fill="var(--svgColor)"/>
<path d="M300.354 134.328C300.354 135.258 299.601 136.012 298.669 136.012C297.739 136.012 296.984 135.258 296.984 134.328C296.984 133.397 297.739 132.643 298.669 132.643C299.601 132.643 300.354 133.397 300.354 134.328Z" fill="var(--svgColor)"/>
<path d="M329.346 134.328C329.346 135.063 328.75 135.659 328.015 135.659C327.28 135.659 326.684 135.063 326.684 134.328C326.684 133.593 327.28 132.997 328.015 132.997C328.75 132.997 329.346 133.593 329.346 134.328Z" fill="var(--svgColor)"/>
</svg>
