<svg width="223" height="221" viewBox="0 0 223 221" fill="none" xmlns="http://www.w3.org/2000/svg">
<path d="M110.938 1.39112C110.962 1.39112 110.987 1.39288 110.987 1.39288L111.012 0.0017338C111.012 0.0017338 110.962 0 110.938 0C50.5365 0 1.39453 49.1278 1.39453 109.513H2.78607C2.78607 49.8934 51.3031 1.39112 110.938 1.39112Z" fill="var(--svgColor)"/>
<path d="M8.76953 109.513H10.1611C10.1611 53.9597 55.3708 8.76305 110.94 8.76305C110.964 8.76305 110.988 8.76412 110.988 8.76412L111.013 7.37297C111.013 7.37297 110.964 7.37158 110.94 7.37158C54.6028 7.37158 8.76953 53.1919 8.76953 109.513Z" fill="var(--svgColor)"/>
<path d="M110.939 16.1353C110.963 16.1353 110.988 16.1377 110.988 16.1377L111.012 14.7452C111.012 14.7452 110.963 14.7441 110.939 14.7441C58.6692 14.7441 16.1445 57.2575 16.1445 109.513H17.5364C17.5364 58.0242 59.4371 16.1353 110.939 16.1353Z" fill="var(--svgColor)"/>
<path d="M23.5117 109.513H24.9032C24.9032 62.0903 63.4963 23.5092 110.932 23.5092C110.956 23.5092 110.981 23.5106 110.981 23.5106L111.006 22.1187C111.006 22.1187 110.956 22.1177 110.932 22.1177C62.7297 22.1177 23.5117 61.3229 23.5117 109.513Z" fill="var(--svgColor)"/>
<path d="M30.8867 109.513H32.2782C32.2782 66.1553 67.5626 30.8819 110.931 30.8819C110.956 30.8819 110.98 30.8833 110.98 30.8833L111.005 29.4918C111.005 29.4918 110.956 29.4907 110.931 29.4907C66.795 29.4907 30.8867 65.3882 30.8867 109.513Z" fill="var(--svgColor)"/>
<path d="M38.2656 109.513H39.6572C39.6572 70.2202 71.6328 38.2549 110.935 38.2549C110.96 38.2549 110.984 38.256 110.984 38.256L111.009 36.8648C111.009 36.8648 110.96 36.8638 110.935 36.8638C70.8662 36.8638 38.2656 69.4538 38.2656 109.513Z" fill="var(--svgColor)"/>
<path d="M45.6406 109.513H47.0325C47.0325 74.2862 75.7005 45.6262 110.936 45.6262C110.96 45.6262 110.985 45.6276 110.985 45.6276L111.009 44.2365C111.009 44.2365 110.96 44.2344 110.936 44.2344C74.9326 44.2344 45.6406 73.5181 45.6406 109.513Z" fill="var(--svgColor)"/>
<path d="M53.0156 109.513H54.4086C54.4086 78.3513 79.7665 52.999 110.936 52.999C110.96 52.999 110.985 53.0022 110.985 53.0022L111.01 51.6103C111.01 51.6103 110.96 51.6079 110.936 51.6079C78.9975 51.6079 53.0156 77.5835 53.0156 109.513Z" fill="var(--svgColor)"/>
<path d="M55.801 109.514H51.625C51.625 142.209 78.2328 168.809 110.937 168.809V166.722V164.635C80.534 164.635 55.801 139.907 55.801 109.514Z" fill="var(--svgColor)"/>
<path d="M55.8009 109.513H54.4094H53.0165H51.625V109.514H55.8009V109.513Z" fill="var(--svgColor)"/>
<path d="M47.0294 109.513H45.6376H44.2461V109.514H48.421V109.513H47.0294Z" fill="var(--svgColor)"/>
<path d="M110.933 176.183V172.008C76.4641 172.008 48.421 143.973 48.421 109.514H44.2461C44.2461 146.275 74.1619 176.183 110.933 176.183Z" fill="var(--svgColor)"/>
<path d="M39.6556 109.513H38.264H36.8711V109.514H41.0471V109.513H39.6556Z" fill="var(--svgColor)"/>
<path d="M110.934 183.555V179.38C72.3978 179.38 41.047 148.039 41.047 109.514H36.8711C36.8711 150.339 70.0967 183.555 110.934 183.555Z" fill="var(--svgColor)"/>
<path d="M110.932 190.928V186.753C68.3315 186.753 33.6707 152.102 33.6707 109.514H29.4961C29.4961 154.405 66.0294 190.928 110.932 190.928Z" fill="var(--svgColor)"/>
<path d="M32.2791 109.513H30.8876H29.4961V109.514H33.6707V109.513H32.2791Z" fill="var(--svgColor)"/>
<path d="M24.9006 109.513H23.5091H22.1172V109.514H26.2935V109.513H24.9006Z" fill="var(--svgColor)"/>
<path d="M110.929 198.3V194.126C64.2627 194.126 26.2946 156.169 26.2935 109.514H22.1172C22.1196 158.47 61.9595 198.3 110.929 198.3Z" fill="var(--svgColor)"/>
<path d="M17.5373 109.513H16.1454H14.7539V109.514H18.9288V109.513H17.5373Z" fill="var(--svgColor)"/>
<path d="M110.939 205.672V201.497C60.2056 201.497 18.9299 160.233 18.9288 109.514H14.7539C14.7539 162.536 57.9035 205.672 110.939 205.672Z" fill="var(--svgColor)"/>
<path d="M10.1581 109.513H8.76654H7.375V109.514H11.5499V109.513H10.1581Z" fill="var(--svgColor)"/>
<path d="M110.936 213.045V208.871C56.1354 208.871 11.552 164.299 11.5499 109.514H7.375C7.37607 166.601 53.8332 213.045 110.936 213.045Z" fill="var(--svgColor)"/>
<path d="M4.17603 109.513H2.78309H1.39155H0V109.514H4.17603V109.513Z" fill="var(--svgColor)"/>
<path d="M4.176 109.514H0C0 170.665 49.7659 220.418 110.935 220.418V216.244C52.0691 216.244 4.176 168.365 4.176 109.514Z" fill="var(--svgColor)"/>
<path d="M111.082 219.028C111.082 219.028 111.032 219.025 111.008 219.025V220.417C111.032 220.417 111.057 220.419 111.057 220.419C171.484 220.419 220.625 171.291 220.625 110.906H219.233C219.233 170.525 170.716 219.028 111.082 219.028Z" fill="var(--svgColor)"/>
<path d="M213.251 110.906H211.86C211.86 166.459 166.65 211.656 111.082 211.656C111.082 211.656 111.032 211.654 111.008 211.654V213.045C111.032 213.045 111.057 213.048 111.057 213.048C167.418 213.048 213.251 167.227 213.251 110.906Z" fill="var(--svgColor)"/>
<path d="M111.082 204.283C111.082 204.283 111.032 204.281 111.008 204.281V205.674C111.032 205.674 111.057 205.674 111.057 205.674C163.351 205.674 205.876 163.162 205.876 110.906H204.484C204.484 162.393 162.583 204.283 111.082 204.283Z" fill="var(--svgColor)"/>
<path d="M198.502 110.906H197.11C197.11 158.327 158.517 196.91 111.082 196.91C111.082 196.91 111.032 196.909 111.008 196.909V198.3C111.032 198.3 111.057 198.301 111.057 198.301C159.284 198.301 198.502 159.095 198.502 110.906Z" fill="var(--svgColor)"/>
<path d="M191.126 110.906H189.734C189.734 154.264 154.45 189.537 111.082 189.537C111.082 189.537 111.032 189.536 111.008 189.536V190.927C111.032 190.927 111.057 190.928 111.057 190.928C155.218 190.928 191.126 155.031 191.126 110.906Z" fill="var(--svgColor)"/>
<path d="M183.752 110.906H182.36C182.36 150.199 150.385 182.164 111.082 182.164C111.082 182.164 111.032 182.163 111.008 182.163V183.555C111.032 183.555 111.057 183.556 111.057 183.556C151.152 183.556 183.752 150.965 183.752 110.906Z" fill="var(--svgColor)"/>
<path d="M176.376 110.906H174.985C174.985 146.133 146.318 174.793 111.082 174.793C111.082 174.793 111.032 174.791 111.008 174.791V176.183C111.032 176.183 111.057 176.184 111.057 176.184C147.084 176.184 176.376 146.9 176.376 110.906Z" fill="var(--svgColor)"/>
<path d="M169.001 110.906H167.61C167.61 142.068 142.252 167.42 111.082 167.42C111.082 167.42 111.032 167.417 111.008 167.417V168.809C111.032 168.809 111.057 168.811 111.057 168.811C143.02 168.811 169.001 142.836 169.001 110.906Z" fill="var(--svgColor)"/>
<path d="M166.214 110.905H170.39C170.39 78.2086 143.783 51.6089 111.078 51.6089V53.6965V55.7833C141.48 55.7833 166.214 80.5112 166.214 110.905Z" fill="var(--svgColor)"/>
<path d="M166.215 110.906H167.608H168.999H170.391V110.905H166.215V110.906Z" fill="var(--svgColor)"/>
<path d="M174.981 110.906H176.373H177.764V110.905H173.59V110.906H174.981Z" fill="var(--svgColor)"/>
<path d="M111.078 44.2363V48.4111C145.547 48.4111 173.59 76.445 173.59 110.904H177.764C177.764 74.1434 147.85 44.2363 111.078 44.2363Z" fill="var(--svgColor)"/>
<path d="M182.357 110.906H183.749H185.141V110.905H180.965V110.906H182.357Z" fill="var(--svgColor)"/>
<path d="M111.078 36.8638V41.0375C149.614 41.0375 180.964 72.3805 180.964 110.905H185.141C185.141 70.08 151.915 36.8638 111.078 36.8638Z" fill="var(--svgColor)"/>
<path d="M111.078 29.4907V33.6648C153.679 33.6648 188.339 68.3159 188.339 110.904H192.514C192.514 66.0137 155.981 29.4907 111.078 29.4907Z" fill="var(--svgColor)"/>
<path d="M189.735 110.906H191.127H192.519V110.905H188.344V110.906H189.735Z" fill="var(--svgColor)"/>
<path d="M197.11 110.906H198.502H199.894V110.905H195.719V110.906H197.11Z" fill="var(--svgColor)"/>
<path d="M111.078 22.1196V26.293C157.746 26.293 195.713 64.2501 195.715 110.905H199.89C199.889 61.9486 160.048 22.1196 111.078 22.1196Z" fill="var(--svgColor)"/>
<path d="M204.485 110.906H205.878H207.27V110.905H203.094V110.906H204.485Z" fill="var(--svgColor)"/>
<path d="M111.078 14.7456V18.9208C161.812 18.9208 203.087 60.1845 203.089 110.905H207.265C207.264 57.8834 164.114 14.7456 111.078 14.7456Z" fill="var(--svgColor)"/>
<path d="M211.864 110.906H213.256H214.648V110.905H210.473V110.906H211.864Z" fill="var(--svgColor)"/>
<path d="M111.078 7.37402V11.5478C165.879 11.5478 210.462 56.1186 210.465 110.905H214.64C214.638 53.8174 168.181 7.37402 111.078 7.37402Z" fill="var(--svgColor)"/>
<path d="M217.836 110.906H219.227H220.619H222.011V110.905H217.836V110.906Z" fill="var(--svgColor)"/>
<path d="M217.838 110.904H222.013C222.013 49.7529 172.247 0 111.078 0V4.1748C169.944 4.1748 217.838 52.0534 217.838 110.904Z" fill="var(--svgColor)"/>
</svg>
