<svg width="438" height="435" viewBox="0 0 438 435" fill="none" xmlns="http://www.w3.org/2000/svg">
<path d="M218.493 2.73983C218.541 2.73983 218.59 2.74329 218.59 2.74329L218.639 0.00341474C218.639 0.00341474 218.541 0 218.493 0C99.5317 0 2.74609 96.7577 2.74609 215.686H5.48674C5.48675 98.2657 101.042 2.73983 218.493 2.73983Z" fill="var(--svgColor)"/>
<path d="M17.2734 215.687H20.0141C20.0141 106.274 109.055 17.2591 218.498 17.2591C218.547 17.2591 218.595 17.2612 218.595 17.2612L218.644 14.5213C218.644 14.5213 218.547 14.5186 218.498 14.5186C107.543 14.5186 17.2734 104.762 17.2734 215.687Z" fill="var(--svgColor)"/>
<path d="M218.491 31.7785C218.539 31.7785 218.588 31.7833 218.588 31.7833L218.637 29.0407C218.637 29.0407 218.539 29.0386 218.491 29.0386C115.546 29.0386 31.793 112.769 31.793 215.686H34.5343C34.5343 114.279 117.058 31.7785 218.491 31.7785Z" fill="var(--svgColor)"/>
<path d="M46.3086 215.686H49.0491C49.0491 122.288 125.059 46.3016 218.484 46.3016C218.532 46.3016 218.58 46.3043 218.58 46.3043L218.629 43.5631C218.629 43.5631 218.532 43.561 218.484 43.561C123.549 43.561 46.3086 120.776 46.3086 215.686Z" fill="var(--svgColor)"/>
<path d="M60.8281 215.687H63.5687C63.5687 130.294 133.062 60.8224 218.476 60.8224C218.525 60.8224 218.573 60.8251 218.573 60.8251L218.622 58.0846C218.622 58.0846 218.525 58.0825 218.476 58.0825C131.55 58.0825 60.8281 128.783 60.8281 215.687Z" fill="var(--svgColor)"/>
<path d="M75.3672 215.686H78.1078C78.1078 138.298 141.084 75.3424 218.491 75.3424C218.539 75.3424 218.587 75.3445 218.587 75.3445L218.636 72.6046C218.636 72.6046 218.539 72.6025 218.491 72.6025C139.574 72.6025 75.3672 136.789 75.3672 215.686Z" fill="var(--svgColor)"/>
<path d="M89.8906 215.687H92.6319C92.6319 146.308 149.094 89.8618 218.49 89.8618C218.538 89.8618 218.586 89.8646 218.586 89.8646L218.635 87.1247C218.635 87.1247 218.538 87.1206 218.49 87.1206C147.582 87.1206 89.8906 144.795 89.8906 215.687Z" fill="var(--svgColor)"/>
<path d="M104.418 215.686H107.161C107.161 154.313 157.104 104.381 218.493 104.381C218.541 104.381 218.589 104.388 218.589 104.388L218.638 101.646C218.638 101.646 218.541 101.642 218.493 101.642C155.59 101.642 104.418 152.801 104.418 215.686Z" fill="var(--svgColor)"/>
<path d="M109.9 215.688H101.676C101.676 280.083 154.08 332.471 218.491 332.471V328.362V324.251C158.612 324.251 109.9 275.549 109.9 215.688Z" fill="var(--svgColor)"/>
<path d="M109.9 215.687H107.16H104.416H101.676V215.689H109.9V215.687Z" fill="var(--svgColor)"/>
<path d="M92.6264 215.687H89.8851H87.1445V215.689H95.367V215.687H92.6264Z" fill="var(--svgColor)"/>
<path d="M218.484 346.994V338.771C150.598 338.771 95.3671 283.557 95.3671 215.688H87.1445C87.1445 288.09 146.064 346.994 218.484 346.994Z" fill="var(--svgColor)"/>
<path d="M78.1012 215.687H75.3606H72.6172V215.689H80.8418V215.687H78.1012Z" fill="var(--svgColor)"/>
<path d="M218.484 361.514V353.292C142.588 353.292 80.8418 291.564 80.8418 215.688H72.6172C72.6172 296.094 138.055 361.514 218.484 361.514Z" fill="var(--svgColor)"/>
<path d="M218.483 376.035V367.813C134.581 367.813 66.3156 299.568 66.3156 215.688H58.0938C58.0938 304.103 130.046 376.035 218.483 376.035Z" fill="var(--svgColor)"/>
<path d="M63.5749 215.687H60.8344H58.0938V215.689H66.3156V215.687H63.5749Z" fill="var(--svgColor)"/>
<path d="M49.0444 215.687H46.3039H43.5625V215.689H51.7878V215.687H49.0444Z" fill="var(--svgColor)"/>
<path d="M218.479 390.554V382.333C126.569 382.333 51.7899 307.576 51.7878 215.688H43.5625C43.5673 312.109 122.032 390.554 218.479 390.554Z" fill="var(--svgColor)"/>
<path d="M34.5405 215.687H31.7992H29.0586V215.689H37.2812V215.687H34.5405Z" fill="var(--svgColor)"/>
<path d="M218.497 405.074V396.852C118.576 396.852 37.2833 315.581 37.2812 215.688H29.0586C29.0586 320.117 114.042 405.074 218.497 405.074Z" fill="var(--svgColor)"/>
<path d="M20.0086 215.687H17.268H14.5273V215.689H22.7499V215.687H20.0086Z" fill="var(--svgColor)"/>
<path d="M218.493 419.595V411.374C110.562 411.374 22.754 323.589 22.7499 215.688H14.5273C14.5294 328.122 106.027 419.595 218.493 419.595Z" fill="var(--svgColor)"/>
<path d="M8.22473 215.687H5.48133H2.74067H0V215.689H8.22473V215.687Z" fill="var(--svgColor)"/>
<path d="M8.22469 215.688H0C0 336.127 98.0145 434.115 218.488 434.115V425.895C102.551 425.895 8.22469 331.596 8.22469 215.688Z" fill="var(--svgColor)"/>
<path d="M218.778 431.377C218.778 431.377 218.681 431.372 218.633 431.372V434.112C218.681 434.112 218.729 434.117 218.729 434.117C337.742 434.117 434.525 337.359 434.525 218.429H431.784C431.784 335.85 336.229 431.377 218.778 431.377Z" fill="var(--svgColor)"/>
<path d="M420.002 218.429H417.262C417.262 327.842 328.221 416.858 218.778 416.858C218.778 416.858 218.681 416.854 218.633 416.854V419.594C218.681 419.594 218.729 419.599 218.729 419.599C329.733 419.599 420.002 329.355 420.002 218.429Z" fill="var(--svgColor)"/>
<path d="M218.778 402.337C218.778 402.337 218.681 402.334 218.633 402.334V405.076C218.681 405.076 218.729 405.077 218.729 405.077C321.723 405.077 405.478 321.348 405.478 218.429H402.735C402.735 319.835 320.211 402.337 218.778 402.337Z" fill="var(--svgColor)"/>
<path d="M390.953 218.429H388.212C388.212 311.827 312.203 387.815 218.778 387.815C218.778 387.815 218.681 387.813 218.633 387.813V390.553C218.681 390.553 218.729 390.555 218.729 390.555C313.712 390.555 390.953 313.339 390.953 218.429Z" fill="var(--svgColor)"/>
<path d="M376.427 218.429H373.685C373.685 303.823 304.192 373.295 218.778 373.295C218.778 373.295 218.681 373.293 218.633 373.293V376.033C218.681 376.033 218.729 376.035 218.729 376.035C305.705 376.035 376.427 305.334 376.427 218.429Z" fill="var(--svgColor)"/>
<path d="M361.904 218.429H359.161C359.161 295.818 296.187 358.774 218.778 358.774C218.778 358.774 218.681 358.772 218.633 358.772V361.512C218.681 361.512 218.729 361.514 218.729 361.514C297.696 361.514 361.904 297.326 361.904 218.429Z" fill="var(--svgColor)"/>
<path d="M347.377 218.429H344.636C344.636 287.81 288.176 344.256 218.778 344.256C218.778 344.256 218.681 344.251 218.633 344.251V346.994C218.681 346.994 218.729 346.996 218.729 346.996C289.686 346.996 347.377 289.321 347.377 218.429Z" fill="var(--svgColor)"/>
<path d="M332.852 218.429H330.111C330.111 279.803 280.168 329.734 218.778 329.734C218.778 329.734 218.681 329.728 218.633 329.728V332.47C218.681 332.47 218.729 332.474 218.729 332.474C281.68 332.474 332.852 281.316 332.852 218.429Z" fill="var(--svgColor)"/>
<path d="M327.359 218.428H335.585C335.585 154.033 283.181 101.644 218.77 101.644V105.756V109.866C278.647 109.866 327.359 158.568 327.359 218.428Z" fill="var(--svgColor)"/>
<path d="M327.363 218.429H330.107H332.847H335.588V218.427H327.363V218.429Z" fill="var(--svgColor)"/>
<path d="M344.631 218.429H347.372H350.112V218.427H341.891V218.429H344.631Z" fill="var(--svgColor)"/>
<path d="M218.77 87.124V95.3463C286.656 95.3463 341.887 150.559 341.887 218.428H350.109C350.109 146.026 291.192 87.124 218.77 87.124Z" fill="var(--svgColor)"/>
<path d="M359.155 218.429H361.898H364.639V218.427H356.414V218.429H359.155Z" fill="var(--svgColor)"/>
<path d="M218.77 72.6025V80.8228C294.666 80.8228 356.411 142.553 356.411 218.427H364.636C364.636 138.022 299.198 72.6025 218.77 72.6025Z" fill="var(--svgColor)"/>
<path d="M218.77 58.0825V66.3035C302.672 66.3035 370.936 134.549 370.936 218.428H379.159C379.159 130.015 307.206 58.0825 218.77 58.0825Z" fill="var(--svgColor)"/>
<path d="M373.686 218.429H376.427H379.168V218.427H370.945V218.429H373.686Z" fill="var(--svgColor)"/>
<path d="M388.213 218.429H390.955H393.695V218.427H385.473V218.429H388.213Z" fill="var(--svgColor)"/>
<path d="M218.77 43.5645V51.784C310.682 51.784 385.459 126.541 385.463 218.428H393.686C393.684 122.008 315.216 43.5645 218.77 43.5645Z" fill="var(--svgColor)"/>
<path d="M402.737 218.429H405.48H408.221V218.427H399.996V218.429H402.737Z" fill="var(--svgColor)"/>
<path d="M218.77 29.041V37.264C318.69 37.264 399.983 118.534 399.986 218.428H408.21C408.208 114.001 323.224 29.041 218.77 29.041Z" fill="var(--svgColor)"/>
<path d="M417.268 218.429H420.009H422.75V218.427H414.527V218.429H417.268Z" fill="var(--svgColor)"/>
<path d="M218.77 14.5229V22.7432C326.7 22.7432 414.508 110.526 414.512 218.428H422.735C422.732 105.994 331.234 14.5229 218.77 14.5229Z" fill="var(--svgColor)"/>
<path d="M429.031 218.429H431.772H434.513H437.254V218.427H429.031V218.429Z" fill="var(--svgColor)"/>
<path d="M429.035 218.428H437.257C437.257 97.9889 339.243 0 218.77 0V8.22232C334.706 8.22232 429.035 102.52 429.035 218.428Z" fill="var(--svgColor)"/>
</svg>
