<svg width="129" height="129" viewBox="0 0 129 129" fill="none" xmlns="http://www.w3.org/2000/svg">
<path d="M125.492 6.11908C127.182 6.11908 128.552 4.75167 128.552 3.05991C128.552 1.37055 127.182 0 125.492 0C123.8 0 122.43 1.37055 122.43 3.05991C122.43 4.75167 123.8 6.11908 125.492 6.11908Z" fill="#FF294A"/>
<path d="M125.492 30.6003C123.8 30.6003 122.43 31.9712 122.43 33.6588C122.43 35.3513 123.8 36.7197 125.492 36.7197C127.182 36.7197 128.552 35.3513 128.552 33.6588C128.552 31.9712 127.182 30.6003 125.492 30.6003Z" fill="#FF294A"/>
<path d="M125.492 61.1995C123.8 61.1995 122.43 62.5713 122.43 64.2579C122.43 65.9486 123.8 67.3177 125.492 67.3177C127.182 67.3177 128.552 65.9486 128.552 64.2579C128.552 62.5713 127.182 61.1995 125.492 61.1995Z" fill="#FF294A"/>
<path d="M125.492 91.7986C123.8 91.7986 122.43 93.1691 122.43 94.8574C122.43 96.5474 123.8 97.9169 125.492 97.9169C127.182 97.9169 128.552 96.5474 128.552 94.8574C128.552 93.1691 127.182 91.7986 125.492 91.7986Z" fill="#FF294A"/>
<path d="M125.492 122.397C123.8 122.397 122.43 123.767 122.43 125.456C122.43 127.146 123.8 128.517 125.492 128.517C127.182 128.517 128.552 127.146 128.552 125.456C128.552 123.767 127.182 122.397 125.492 122.397Z" fill="#FF294A"/>
<path d="M94.8857 0C93.1969 0 91.8242 1.37055 91.8242 3.05991C91.8242 4.75167 93.1969 6.11908 94.8857 6.11908C96.578 6.11908 97.9468 4.75167 97.9468 3.05991C97.9468 1.37055 96.578 0 94.8857 0Z" fill="#FF294A"/>
<path d="M94.8857 30.6003C93.1969 30.6003 91.8242 31.9712 91.8242 33.6588C91.8242 35.3513 93.1969 36.7197 94.8857 36.7197C96.578 36.7197 97.9468 35.3513 97.9468 33.6588C97.9468 31.9712 96.578 30.6003 94.8857 30.6003Z" fill="#FF294A"/>
<path d="M94.8857 61.1995C93.1969 61.1995 91.8242 62.5713 91.8242 64.2579C91.8242 65.9486 93.1969 67.3177 94.8857 67.3177C96.578 67.3177 97.9468 65.9486 97.9468 64.2579C97.9468 62.5713 96.578 61.1995 94.8857 61.1995Z" fill="#FF294A"/>
<path d="M94.8857 91.7986C93.1969 91.7986 91.8242 93.1691 91.8242 94.8574C91.8242 96.5474 93.1969 97.9169 94.8857 97.9169C96.578 97.9169 97.9468 96.5474 97.9468 94.8574C97.9468 93.1691 96.578 91.7986 94.8857 91.7986Z" fill="#FF294A"/>
<path d="M94.8857 122.397C93.1969 122.397 91.8242 123.767 91.8242 125.456C91.8242 127.146 93.1969 128.517 94.8857 128.517C96.578 128.517 97.9468 127.146 97.9468 125.456C97.9468 123.767 96.578 122.397 94.8857 122.397Z" fill="#FF294A"/>
<path d="M64.2752 0C62.5875 0 61.2148 1.37055 61.2148 3.05991C61.2148 4.75167 62.5875 6.11908 64.2752 6.11908C65.9664 6.11908 67.3373 4.75167 67.3373 3.05991C67.3373 1.37055 65.9664 0 64.2752 0Z" fill="#FF294A"/>
<path d="M64.2752 30.6006C62.5875 30.6006 61.2148 31.9714 61.2148 33.659C61.2148 35.3515 62.5875 36.7199 64.2752 36.7199C65.9664 36.7199 67.3373 35.3515 67.3373 33.659C67.3373 31.9714 65.9664 30.6006 64.2752 30.6006Z" fill="#FF294A"/>
<path d="M64.2752 61.1992C62.5875 61.1992 61.2148 62.5711 61.2148 64.2576C61.2148 65.9484 62.5875 67.3174 64.2752 67.3174C65.9664 67.3174 67.3373 65.9484 67.3373 64.2576C67.3373 62.5711 65.9664 61.1992 64.2752 61.1992Z" fill="#FF294A"/>
<path d="M64.2752 91.7983C62.5875 91.7983 61.2148 93.1688 61.2148 94.8571C61.2148 96.5472 62.5875 97.9167 64.2752 97.9167C65.9664 97.9167 67.3373 96.5472 67.3373 94.8571C67.3373 93.1688 65.9664 91.7983 64.2752 91.7983Z" fill="#FF294A"/>
<path d="M64.2752 122.397C62.5875 122.397 61.2148 123.767 61.2148 125.456C61.2148 127.146 62.5875 128.517 64.2752 128.517C65.9664 128.517 67.3373 127.146 67.3373 125.456C67.3373 123.767 65.9664 122.397 64.2752 122.397Z" fill="#FF294A"/>
<path d="M33.6619 0C31.9742 0 30.6016 1.37055 30.6016 3.05991C30.6016 4.75167 31.9742 6.11908 33.6619 6.11908C35.3549 6.11908 36.7224 4.75167 36.7224 3.05991C36.7224 1.37055 35.3549 0 33.6619 0Z" fill="#FF294A"/>
<path d="M33.6619 30.6006C31.9742 30.6006 30.6016 31.9714 30.6016 33.659C30.6016 35.3515 31.9742 36.7199 33.6619 36.7199C35.3549 36.7199 36.7224 35.3515 36.7224 33.659C36.7224 31.9714 35.3549 30.6006 33.6619 30.6006Z" fill="#FF294A"/>
<path d="M33.6619 61.1992C31.9742 61.1992 30.6016 62.5711 30.6016 64.2576C30.6016 65.9484 31.9742 67.3174 33.6619 67.3174C35.3549 67.3174 36.7224 65.9484 36.7224 64.2576C36.7224 62.5711 35.3549 61.1992 33.6619 61.1992Z" fill="#FF294A"/>
<path d="M33.6619 91.7983C31.9742 91.7983 30.6016 93.1688 30.6016 94.8571C30.6016 96.5472 31.9742 97.9167 33.6619 97.9167C35.3549 97.9167 36.7224 96.5472 36.7224 94.8571C36.7224 93.1688 35.3549 91.7983 33.6619 91.7983Z" fill="#FF294A"/>
<path d="M33.6619 122.397C31.9742 122.397 30.6016 123.767 30.6016 125.456C30.6016 127.146 31.9742 128.517 33.6619 128.517C35.3549 128.517 36.7224 127.146 36.7224 125.456C36.7224 123.767 35.3549 122.397 33.6619 122.397Z" fill="#FF294A"/>
<path d="M3.06075 0C1.37234 0 0 1.37055 0 3.05991C0 4.75167 1.37234 6.11908 3.06075 6.11908C4.75343 6.11908 6.12048 4.75167 6.12048 3.05991C6.12048 1.37055 4.75343 0 3.06075 0Z" fill="#FF294A"/>
<path d="M3.06075 30.6006C1.37234 30.6006 0 31.9714 0 33.659C0 35.3515 1.37234 36.7199 3.06075 36.7199C4.75343 36.7199 6.12048 35.3515 6.12048 33.659C6.12048 31.9714 4.75343 30.6006 3.06075 30.6006Z" fill="#FF294A"/>
<path d="M3.06075 61.1992C1.37234 61.1992 0 62.5711 0 64.2576C0 65.9484 1.37234 67.3174 3.06075 67.3174C4.75343 67.3174 6.12048 65.9484 6.12048 64.2576C6.12048 62.5711 4.75343 61.1992 3.06075 61.1992Z" fill="#FF294A"/>
<path d="M3.06075 91.7983C1.37234 91.7983 0 93.1688 0 94.8571C0 96.5472 1.37234 97.9167 3.06075 97.9167C4.75343 97.9167 6.12048 96.5472 6.12048 94.8571C6.12048 93.1688 4.75343 91.7983 3.06075 91.7983Z" fill="#FF294A"/>
<path d="M3.06075 122.397C1.37234 122.397 0 123.767 0 125.456C0 127.146 1.37234 128.517 3.06075 128.517C4.75343 128.517 6.12048 127.146 6.12048 125.456C6.12048 123.767 4.75343 122.397 3.06075 122.397Z" fill="#FF294A"/>
</svg>
