<svg width="129" height="131" viewBox="0 0 129 131" fill="none" xmlns="http://www.w3.org/2000/svg">
<path d="M80.6301 40.2041C81.9614 40.2041 83.0396 41.2827 83.0396 42.6109C83.0396 43.9412 81.9614 45.0212 80.6301 45.0212C79.3022 45.0212 78.2227 43.9412 78.2227 42.6109C78.2227 41.2827 79.3022 40.2041 80.6301 40.2041Z" fill="var(--svgColor)"/>
<path d="M67.4472 54.7705C68.7786 54.7705 69.856 55.846 69.856 57.1766C69.856 58.5076 68.7786 59.5862 67.4472 59.5862C66.1148 59.5862 65.0391 58.5076 65.0391 57.1766C65.0391 55.846 66.1148 54.7705 67.4472 54.7705Z" fill="var(--svgColor)"/>
<path d="M54.4188 69.7637C55.748 69.7637 56.8256 70.8436 56.8256 72.1708C56.8256 73.4997 55.748 74.5776 54.4188 74.5776C53.086 74.5776 52.0078 73.4997 52.0078 72.1708C52.0078 70.8436 53.086 69.7637 54.4188 69.7637Z" fill="var(--svgColor)"/>
<path d="M60.3158 34.9629C61.6468 34.9629 62.7218 36.0394 62.7218 37.3673C62.7218 38.7007 61.6468 39.7772 60.3158 39.7772C58.983 39.7772 57.9063 38.7007 57.9063 37.3673C57.9062 36.0394 58.983 34.9629 60.3158 34.9629Z" fill="var(--svgColor)"/>
<path d="M53.0505 16.3892C54.378 16.3892 55.4576 17.4667 55.4576 18.7988C55.4576 20.1277 54.378 21.2024 53.0505 21.2024C51.7181 21.2024 50.6406 20.1277 50.6406 18.7988C50.6406 17.4667 51.7181 16.3892 53.0505 16.3892Z" fill="var(--svgColor)"/>
<path d="M74.1404 19.9761C75.4722 19.9761 76.5494 21.0557 76.5494 22.3825C76.5494 23.7114 75.4722 24.7906 74.1404 24.7906C72.8094 24.7906 71.7344 23.7114 71.7344 22.3825C71.7344 21.0557 72.8094 19.9761 74.1404 19.9761Z" fill="var(--svgColor)"/>
<path d="M93.4977 26.1919C94.8294 26.1919 95.9083 27.2695 95.9083 28.5994C95.9083 29.9283 94.8294 31.0076 93.4977 31.0076C92.1684 31.0076 91.0898 29.9283 91.0898 28.5994C91.0898 27.2695 92.1684 26.1919 93.4977 26.1919Z" fill="var(--svgColor)"/>
<path d="M115.87 30.5156C117.197 30.5156 118.271 31.5896 118.271 32.9161C118.271 34.2415 117.197 35.3204 115.87 35.3204C114.543 35.3204 113.465 34.2415 113.465 32.9161C113.465 31.5896 114.543 30.5156 115.87 30.5156Z" fill="var(--svgColor)"/>
<path d="M102.159 44.8774C103.486 44.8774 104.565 45.956 104.565 47.2857C104.565 48.6125 103.486 49.69 102.159 49.69C100.828 49.69 99.75 48.6125 99.75 47.2857C99.75 45.956 100.828 44.8774 102.159 44.8774Z" fill="var(--svgColor)"/>
<path d="M88.2547 59.2461C89.584 59.2461 90.6598 60.3247 90.6598 61.6522C90.6598 62.9832 89.584 64.0618 88.2547 64.0618C86.9227 64.0618 85.8438 62.9832 85.8438 61.6522C85.8437 60.3247 86.9227 59.2461 88.2547 59.2461Z" fill="var(--svgColor)"/>
<path d="M74.9732 74.0571C76.3056 74.0571 77.3834 75.1357 77.3834 76.4653C77.3834 77.7935 76.3056 78.8707 74.9732 78.8707C73.6446 78.8707 72.5664 77.7935 72.5664 76.4653C72.5664 75.1357 73.6446 74.0571 74.9732 74.0571Z" fill="var(--svgColor)"/>
<path d="M95.8907 78.23C97.22 78.23 98.2964 79.3071 98.2964 80.6361C98.2964 81.9671 97.22 83.0457 95.8907 83.0457C94.56 83.0457 93.4805 81.9671 93.4805 80.6361C93.4805 79.3071 94.56 78.23 95.8907 78.23Z" fill="var(--svgColor)"/>
<path d="M108.647 64.8047C109.98 64.8047 111.055 65.8819 111.055 67.2108C111.055 68.5428 109.98 69.6203 108.647 69.6203C107.317 69.6203 106.238 68.5428 106.238 67.2108C106.238 65.8819 107.317 64.8047 108.647 64.8047Z" fill="var(--svgColor)"/>
<path d="M123.088 49.2295C124.417 49.2295 125.496 50.307 125.496 51.6391C125.496 52.9648 124.417 54.0441 123.088 54.0441C121.759 54.0441 120.68 52.9648 120.68 51.6391C120.68 50.307 121.759 49.2295 123.088 49.2295Z" fill="var(--svgColor)"/>
<path d="M117.109 87.4551C118.437 87.4551 119.515 88.5323 119.515 89.8643C119.515 91.1932 118.437 92.2707 117.109 92.2707C115.777 92.2707 114.699 91.1932 114.699 89.8643C114.699 88.5323 115.777 87.4551 117.109 87.4551Z" fill="var(--svgColor)"/>
<path d="M126.534 69.9302C127.844 69.9302 128.907 70.9882 128.907 72.3024C128.907 73.6137 127.844 74.6724 126.534 74.6724C125.222 74.6724 124.16 73.6137 124.16 72.3024C124.16 70.9882 125.222 69.9302 126.534 69.9302Z" fill="var(--svgColor)"/>
<path d="M105.523 13.4448C106.796 13.4448 107.827 14.4766 107.827 15.7495C107.827 17.0228 106.796 18.0538 105.523 18.0538C104.249 18.0538 103.219 17.0228 103.219 15.7495C103.219 14.4766 104.249 13.4448 105.523 13.4448Z" fill="var(--svgColor)"/>
<path d="M87.2973 3.74512C88.5279 3.74512 89.5267 4.74469 89.5267 5.97605C89.5267 7.20459 88.5279 8.20416 87.2973 8.20416C86.0659 8.20416 85.0664 7.20459 85.0664 5.97605C85.0664 4.74469 86.0659 3.74512 87.2973 3.74512Z" fill="var(--svgColor)"/>
<path d="M67.0745 1.02539C68.389 1.02539 69.4557 2.09101 69.4557 3.40769C69.4557 4.71738 68.389 5.78375 67.0745 5.78375C65.7627 5.78375 64.6992 4.71738 64.6992 3.40769C64.6992 2.09101 65.7627 1.02539 67.0745 1.02539Z" fill="var(--svgColor)"/>
<path d="M45.5513 0C46.5472 0 47.3575 0.810771 47.3575 1.80826C47.3575 2.80569 46.5472 3.61609 45.5513 3.61609C44.5511 3.61609 43.7422 2.80569 43.7422 1.80826C43.7422 0.810771 44.5511 0 45.5513 0Z" fill="var(--svgColor)"/>
<path d="M29.5591 12.1372C30.8394 12.1372 31.8738 13.1738 31.8738 14.4513C31.8738 15.7306 30.8394 16.7668 29.5591 16.7668C28.2805 16.7668 27.2422 15.7306 27.2422 14.4513C27.2422 13.1738 28.2805 12.1372 29.5591 12.1372Z" fill="var(--svgColor)"/>
<path d="M38.6198 29.3984C39.9495 29.3984 41.0297 30.4784 41.0297 31.808C41.0297 33.138 39.9495 34.2172 38.6198 34.2172C37.2892 34.2172 36.2148 33.138 36.2148 31.808C36.2148 30.4784 37.2892 29.3984 38.6198 29.3984Z" fill="var(--svgColor)"/>
<path d="M15.1571 26.5176C16.4426 26.5176 17.4824 27.5577 17.4824 28.8391C17.4824 30.1208 16.4426 31.1609 15.1571 31.1609C13.8799 31.1609 12.8398 30.1208 12.8398 28.8391C12.8398 27.5577 13.8799 26.5176 15.1571 26.5176Z" fill="var(--svgColor)"/>
<path d="M5.13533 45.5439C6.41566 45.5439 7.45538 46.5823 7.45538 47.863C7.45538 49.1482 6.41566 50.1849 5.13533 50.1849C3.85153 50.1849 2.8125 49.1482 2.8125 47.863C2.8125 46.5823 3.85153 45.5439 5.13533 45.5439Z" fill="var(--svgColor)"/>
<path d="M17.6798 59.9263C19.0091 59.9263 20.0894 61.0045 20.0894 62.3351C20.0894 63.6633 19.0091 64.7388 17.6798 64.7388C16.3505 64.7388 15.2734 63.6633 15.2734 62.3351C15.2734 61.0045 16.3505 59.9263 17.6798 59.9263Z" fill="var(--svgColor)"/>
<path d="M26.6046 43.8223C27.9339 43.8223 29.0124 44.9005 29.0124 46.2325C29.0124 47.56 27.9339 48.6368 26.6046 48.6368C25.2728 48.6368 24.1953 47.56 24.1953 46.2325C24.1953 44.9005 25.2728 43.8223 26.6046 43.8223Z" fill="var(--svgColor)"/>
<path d="M47.1749 49.0806C48.5056 49.0806 49.5859 50.1598 49.5859 51.4894C49.5859 52.8197 48.5056 53.8976 47.1749 53.8976C45.8452 53.8976 44.7656 52.8197 44.7656 51.4894C44.7656 50.1598 45.8452 49.0806 47.1749 49.0806Z" fill="var(--svgColor)"/>
<path d="M35.7409 64.437C37.0715 64.437 38.1511 65.5145 38.1511 66.8435C38.1511 68.1748 37.0715 69.253 35.7409 69.253C34.4091 69.253 33.332 68.1748 33.332 66.8435C33.332 65.5145 34.4091 64.437 35.7409 64.437Z" fill="var(--svgColor)"/>
<path d="M21.22 79.3496C22.5521 79.3496 23.6317 80.4271 23.6317 81.756C23.6317 83.0846 22.5521 84.1635 21.22 84.1635C19.8914 84.1635 18.8125 83.0846 18.8125 81.756C18.8125 80.4271 19.8914 79.3496 21.22 79.3496Z" fill="var(--svgColor)"/>
<path d="M2.20001 69.2041C3.41667 69.2041 4.40045 70.1914 4.40045 71.4039C4.40045 72.6205 3.41667 73.6036 2.20001 73.6036C0.986185 73.6036 0 72.6205 0 71.4039C0 70.1914 0.986185 69.2041 2.20001 69.2041Z" fill="var(--svgColor)"/>
<path d="M6.85575 91.5142C7.94898 91.5142 8.83618 92.4032 8.83618 93.4955C8.83618 94.588 7.94898 95.475 6.85575 95.475C5.76327 95.475 4.875 94.588 4.875 93.4955C4.875 92.4032 5.76327 91.5142 6.85575 91.5142Z" fill="var(--svgColor)"/>
<path d="M24.047 100.205C25.378 100.205 26.4551 101.283 26.4551 102.614C26.4551 103.944 25.378 105.022 24.047 105.022C22.717 105.022 21.6367 103.944 21.6367 102.614C21.6367 101.283 22.717 100.205 24.047 100.205Z" fill="var(--svgColor)"/>
<path d="M33.6789 115.659C34.926 115.659 35.9366 116.671 35.9366 117.918C35.9366 119.163 34.926 120.175 33.6789 120.175C32.4314 120.175 31.418 119.163 31.418 117.918C31.418 116.671 32.4314 115.659 33.6789 115.659Z" fill="var(--svgColor)"/>
<path d="M47.1575 102.274C48.4892 102.274 49.5678 103.353 49.5678 104.683C49.5678 106.014 48.4892 107.088 47.1575 107.088C45.8283 107.088 44.7539 106.014 44.7539 104.683C44.7539 103.353 45.8283 102.274 47.1575 102.274Z" fill="var(--svgColor)"/>
<path d="M53.542 120.966C54.8713 120.966 55.9498 122.043 55.9498 123.372C55.9498 124.704 54.8713 125.782 53.542 125.782C52.2103 125.782 51.1328 124.704 51.1328 123.372C51.1328 122.043 52.2103 120.966 53.542 120.966Z" fill="var(--svgColor)"/>
<path d="M68.2281 107.751C69.5591 107.751 70.6386 108.829 70.6386 110.161C70.6386 111.49 69.5591 112.567 68.2281 112.567C66.8988 112.567 65.8203 111.49 65.8203 110.161C65.8203 108.829 66.8988 107.751 68.2281 107.751Z" fill="var(--svgColor)"/>
<path d="M74.5378 126.382C75.7415 126.382 76.7155 127.356 76.7155 128.558C76.7155 129.76 75.7415 130.736 74.5378 130.736C73.3341 130.736 72.3594 129.76 72.3594 128.558C72.3594 127.356 73.3341 126.382 74.5378 126.382Z" fill="var(--svgColor)"/>
<path d="M89.3873 113.062C90.7211 113.062 91.7983 114.14 91.7983 115.467C91.7983 116.798 90.7211 117.876 89.3873 117.876C88.0601 117.876 86.9805 116.798 86.9805 115.467C86.9805 114.14 88.0601 113.062 89.3873 113.062Z" fill="var(--svgColor)"/>
<path d="M110.375 110.504C111.553 110.504 112.507 111.457 112.507 112.634C112.507 113.811 111.553 114.765 110.375 114.765C109.198 114.765 108.246 113.811 108.246 112.634C108.246 111.457 109.198 110.504 110.375 110.504Z" fill="var(--svgColor)"/>
<path d="M99.9472 96.0815C101.275 96.0815 102.354 97.1615 102.354 98.4897C102.354 99.8218 101.275 100.899 99.9472 100.899C98.6179 100.899 97.5391 99.8218 97.5391 98.4897C97.5391 97.1615 98.6179 96.0815 99.9472 96.0815Z" fill="var(--svgColor)"/>
<path d="M81.0285 93.2754C82.3571 93.2754 83.4366 94.3515 83.4366 95.6804C83.4366 97.0115 82.3571 98.0901 81.0285 98.0901C79.6993 98.0901 78.6211 97.0115 78.6211 95.6804C78.6211 94.3515 79.6993 93.2754 81.0285 93.2754Z" fill="var(--svgColor)"/>
<path d="M60.8925 88.6235C62.2217 88.6235 63.2999 89.7028 63.2999 91.0328C63.2999 92.363 62.2217 93.4402 60.8925 93.4402C59.5601 93.4402 58.4805 92.363 58.4805 91.0328C58.4805 89.7028 59.5601 88.6235 60.8925 88.6235Z" fill="var(--svgColor)"/>
<path d="M39.8666 84.8159C41.1983 84.8159 42.2761 85.8952 42.2761 87.2223C42.2761 88.5512 41.1983 89.6308 39.8666 89.6308C38.5367 89.6308 37.4609 88.5512 37.4609 87.2223C37.4609 85.8952 38.5367 84.8159 39.8666 84.8159Z" fill="var(--svgColor)"/>
</svg>
