<svg width="112" height="221" viewBox="0 0 112 221" fill="none" xmlns="http://www.w3.org/2000/svg">
<path d="M0.0738006 219.028C0.0738006 219.028 0.0244935 219.025 0 219.025V220.417C0.0244935 220.417 0.0489869 220.419 0.0489869 220.419C60.4763 220.419 109.617 171.291 109.617 110.906H108.225C108.225 170.525 59.7084 219.028 0.0738006 219.028Z" fill="#2B2B36"/>
<path d="M102.243 110.906H100.852C100.852 166.459 55.6425 211.656 0.0738005 211.656C0.0738005 211.656 0.0244935 211.654 0 211.654V213.045C0.0244935 213.045 0.0489869 213.048 0.0489869 213.048C56.4101 213.048 102.243 167.227 102.243 110.906Z" fill="#2B2B36"/>
<path d="M0.0738006 204.283C0.0738006 204.283 0.0244935 204.281 0 204.281V205.674C0.0244935 205.674 0.0489869 205.674 0.0489869 205.674C52.3429 205.674 94.8686 163.162 94.8686 110.906H93.476C93.476 162.393 51.5753 204.283 0.0738006 204.283Z" fill="#2B2B36"/>
<path d="M87.4941 110.906H86.1022C86.1022 158.327 47.5092 196.91 0.0738006 196.91C0.0738006 196.91 0.0244935 196.909 0 196.909V198.3C0.0244935 198.3 0.0489869 198.301 0.0489869 198.301C48.2757 198.301 87.4941 159.095 87.4941 110.906Z" fill="#2B2B36"/>
<path d="M80.1182 110.906H78.7263C78.7263 154.264 43.4419 189.537 0.0738006 189.537C0.0738006 189.537 0.0244935 189.536 0 189.536V190.927C0.0244935 190.927 0.0489869 190.928 0.0489869 190.928C44.2099 190.928 80.1182 155.031 80.1182 110.906Z" fill="#2B2B36"/>
<path d="M72.7444 110.906H71.3518C71.3518 150.199 39.3771 182.164 0.0738005 182.164C0.0738005 182.164 0.0244935 182.163 0 182.163V183.555C0.0244935 183.555 0.0489869 183.556 0.0489869 183.556C40.1437 183.556 72.7444 150.965 72.7444 110.906Z" fill="#2B2B36"/>
<path d="M65.3685 110.906H63.977C63.977 146.133 35.3099 174.793 0.0738006 174.793C0.0738006 174.793 0.0244935 174.791 0 174.791V176.183C0.0244935 176.183 0.0489869 176.184 0.0489869 176.184C36.0765 176.184 65.3685 146.9 65.3685 110.906Z" fill="#2B2B36"/>
<path d="M57.9937 110.906H56.6022C56.6022 142.068 31.2441 167.42 0.0738006 167.42C0.0738006 167.42 0.0244935 167.417 0 167.417V168.809C0.0244935 168.809 0.0489869 168.811 0.0489869 168.811C32.0117 168.811 57.9937 142.836 57.9937 110.906Z" fill="#2B2B36"/>
<path d="M55.2057 110.905H59.382C59.382 78.2086 32.7748 51.6089 0.0703125 51.6089V53.6965V55.7833C30.4726 55.7833 55.2057 80.5112 55.2057 110.905Z" fill="#2B2B36"/>
<path d="M55.207 110.905H56.5999H57.9914H59.3833V110.904H55.207V110.905Z" fill="#2B2B36"/>
<path d="M63.9735 110.905H65.365H66.7565V110.904H62.582V110.905H63.9735Z" fill="#2B2B36"/>
<path d="M0.0703125 44.2363V48.4111C34.5388 48.4111 62.582 76.445 62.582 110.904H66.7566C66.7566 74.1434 36.8421 44.2363 0.0703125 44.2363Z" fill="#2B2B36"/>
<path d="M71.3489 110.905H72.7415H74.1334V110.904H69.957V110.905H71.3489Z" fill="#2B2B36"/>
<path d="M0.0703125 36.8638V41.0375C38.606 41.0375 69.9564 72.3805 69.9564 110.905H74.1328C74.1328 70.08 40.9068 36.8638 0.0703125 36.8638Z" fill="#2B2B36"/>
<path d="M0.0703125 29.4907V33.6648C42.6708 33.6648 77.3313 68.3159 77.3313 110.904H81.5062C81.5062 66.0137 44.973 29.4907 0.0703125 29.4907Z" fill="#2B2B36"/>
<path d="M78.7275 110.905H80.1193H81.5109V110.904H77.3359V110.905H78.7275Z" fill="#2B2B36"/>
<path d="M86.1025 110.905H87.4944H88.8859V110.904H84.7109V110.905H86.1025Z" fill="#2B2B36"/>
<path d="M0.0703125 22.1196V26.293C46.738 26.293 84.7051 64.2501 84.7072 110.905H88.8821C88.8811 61.9486 49.0402 22.1196 0.0703125 22.1196Z" fill="#2B2B36"/>
<path d="M93.4775 110.905H94.8701H96.262V110.904H92.0859V110.905H93.4775Z" fill="#2B2B36"/>
<path d="M0.0703125 14.7456V18.9208C50.8038 18.9208 92.0796 60.1845 92.081 110.905H96.257C96.2559 57.8834 53.106 14.7456 0.0703125 14.7456Z" fill="#2B2B36"/>
<path d="M100.856 110.905H102.248H103.64V110.904H99.4648V110.905H100.856Z" fill="#2B2B36"/>
<path d="M0.0703125 7.37402V11.5478C54.871 11.5478 99.4543 56.1186 99.4568 110.905H103.632C103.63 53.8174 57.1732 7.37402 0.0703125 7.37402Z" fill="#2B2B36"/>
<path d="M106.828 110.905H108.22H109.612H111.003V110.904H106.828V110.905Z" fill="#2B2B36"/>
<path d="M106.83 110.904H111.005C111.005 49.7529 61.2394 0 0.0703125 0V4.1748C58.9357 4.1748 106.83 52.0534 106.83 110.904Z" fill="#2B2B36"/>
</svg>
