<svg width="272" height="272" viewBox="0 0 272 272" fill="none" xmlns="http://www.w3.org/2000/svg">
<path d="M161.393 139.872C163.691 125.715 154.075 112.377 139.914 110.08C125.754 107.782 112.412 117.396 110.114 131.553C107.816 145.709 117.432 159.047 131.593 161.345C145.753 163.642 159.095 154.028 161.393 139.872Z" stroke="#2B2B36" stroke-width="1.35892" stroke-miterlimit="10"/>
<path d="M187.026 144.031C191.622 115.718 172.39 89.0418 144.069 84.4474C115.749 79.8529 89.0655 99.0802 84.4698 127.393C79.874 155.705 99.1065 182.382 127.427 186.976C155.747 191.571 182.431 172.343 187.026 144.031Z" stroke="#2B2B36" stroke-width="1.35892" stroke-miterlimit="10"/>
<path d="M213.675 135.712C213.675 178.738 178.788 213.615 135.752 213.615C92.7159 213.615 57.8281 178.738 57.8281 135.712C57.8281 92.6887 92.7159 57.8101 135.752 57.8101C178.788 57.8101 213.675 92.6887 213.675 135.712Z" stroke="#2B2B36" stroke-width="1.35892" stroke-miterlimit="10"/>
<path d="M231.74 175.461C253.699 122.462 228.525 61.7019 175.511 39.7491C122.497 17.7963 61.7198 42.9642 39.7606 95.9632C17.8014 148.962 42.976 209.723 95.9897 231.675C149.003 253.628 209.781 228.46 231.74 175.461Z" stroke="#2B2B36" stroke-width="1.35892" stroke-miterlimit="10"/>
</svg>
