<svg width="219" height="216" viewBox="0 0 219 216" fill="none" xmlns="http://www.w3.org/2000/svg">
<path d="M25.3783 169.899L55.6897 200.202L60.6787 205.19L70.6072 215.11V205.128L65.6731 200.202L60.6787 195.21L30.3698 164.908L25.3783 159.915L0 134.543V144.524L20.3864 164.908L25.3783 169.899Z" fill="var(--svgColor)"/>
<path d="M25.3783 134.604L55.6897 164.908L60.6787 169.899L70.6072 179.816V169.837L65.6731 164.908L60.6787 159.915L30.3698 129.614L25.3783 124.623L0 99.248V109.231L20.3864 129.614L25.3783 134.604Z" fill="var(--svgColor)"/>
<path d="M25.3783 99.3103L55.6897 129.614L60.6787 134.605L70.6072 144.525V134.544L65.6731 129.614L60.6787 124.623L30.3698 94.3205L25.3783 89.3283L0 63.9551V73.9378L20.3864 94.3205L25.3783 99.3103Z" fill="var(--svgColor)"/>
<path d="M25.3783 64.0182L55.6897 94.3201L60.6787 99.3098L70.6072 109.231V99.2479L65.6731 94.3201L60.6787 89.3279L30.3698 59.026L25.3783 54.0384L0 28.6616V38.6425L20.3864 59.026L25.3783 64.0182Z" fill="var(--svgColor)"/>
<path d="M25.3783 28.724L55.6897 59.0262L60.6787 64.0184L70.6072 73.9374V70.5867H77.2358L65.6731 59.0262L60.6787 54.0385L30.3698 23.7321L25.3783 18.742L6.62924 0H0V3.34935L20.3864 23.7321L25.3783 28.724Z" fill="var(--svgColor)"/>
<path d="M60.6838 28.724L90.9973 59.0262L95.9878 64.0184L102.56 70.5867H112.545L100.981 59.0262L95.9878 54.0385L65.6781 23.7321L60.6838 18.742L41.9372 0H31.9531L55.6947 23.7321L60.6838 28.724Z" fill="var(--svgColor)"/>
<path d="M95.9835 28.724L126.296 59.0262L131.288 64.0184L137.86 70.5867H147.844L136.28 59.0262L131.288 54.0385L100.977 23.7321L95.9835 18.742L77.2366 0H67.2539L90.9931 23.7321L95.9835 28.724Z" fill="var(--svgColor)"/>
<path d="M131.287 28.724L161.598 59.0262L166.589 64.0184L173.162 70.5867H183.146L171.583 59.0262L166.589 54.0385L136.278 23.7321L131.287 18.742L112.539 0H102.555L126.295 23.7321L131.287 28.724Z" fill="var(--svgColor)"/>
<path d="M166.594 28.724L196.905 59.0262L201.898 64.0184L208.469 70.5867H218.452L206.889 59.0262L201.898 54.0385L171.588 23.7321L166.594 18.742L147.846 0H137.863L161.602 23.7321L166.594 28.724Z" fill="var(--svgColor)"/>
</svg>
