<svg width="70" height="70" viewBox="0 0 70 70" fill="none" xmlns="http://www.w3.org/2000/svg">
<path d="M10.1653 59.3136C-3.38791 45.7634 -3.38898 23.7133 10.1653 10.1624C23.7201 -3.38711 45.7763 -3.38781 59.3306 10.1624C72.8864 23.7143 72.8854 45.7644 59.3306 59.3136C45.7763 72.8648 23.721 72.8658 10.1653 59.3136ZM46.3216 23.1678C39.9406 16.7873 29.5568 16.7873 23.1756 23.1678C16.7921 29.5484 16.7921 39.93 23.1734 46.3098C29.5558 52.689 39.9406 52.69 46.323 46.3091C52.7038 39.9293 52.7028 29.5484 46.3216 23.1678Z" fill="#2B2B36"/>
<path opacity="0.5" d="M64.4171 34.7656H62.8826C62.8826 50.4153 50.1462 63.1481 34.4922 63.1481V64.6819C50.9925 64.6819 64.4171 51.261 64.4171 34.7656Z" fill="#FF294A"/>
</svg>
